<?xml version="1.0" encoding="utf-8" standalone="no"?>
<!DOCTYPE svg PUBLIC "-//W3C//DTD SVG 1.1//EN"
  "http://www.w3.org/Graphics/SVG/1.1/DTD/svg11.dtd">
<svg height="226.409688pt" version="1.1" viewBox="0 0 333.61375 226.409688" width="333.61375pt" xmlns="http://www.w3.org/2000/svg" xmlns:xlink="http://www.w3.org/1999/xlink">
 <metadata>
  <rdf:RDF xmlns:cc="http://creativecommons.org/ns#" xmlns:dc="http://purl.org/dc/elements/1.1/" xmlns:rdf="http://www.w3.org/1999/02/22-rdf-syntax-ns#">
   <cc:Work>
    <dc:type rdf:resource="http://purl.org/dc/dcmitype/StillImage"/>
    <dc:date>2021-12-13T11:10:15.464508</dc:date>
    <dc:format>image/svg+xml</dc:format>
    <dc:creator>
     <cc:Agent>
      <dc:title>Matplotlib v3.4.2, https://matplotlib.org/</dc:title>
     </cc:Agent>
    </dc:creator>
   </cc:Work>
  </rdf:RDF>
 </metadata>
 <defs>
  <style type="text/css">*{stroke-linecap:butt;stroke-linejoin:round;}</style>
 </defs>
 <g id="figure_1">
  <g id="patch_1">
   <path d="M 0 226.409688 
L 333.61375 226.409688 
L 333.61375 -0 
L 0 -0 
z
" style="fill:none;"/>
  </g>
  <g id="axes_1">
   <g id="patch_2">
    <path d="M 47.41375 186.917813 
L 326.41375 186.917813 
L 326.41375 23.837813 
L 47.41375 23.837813 
z
" style="fill:#ffffff;"/>
   </g>
   <g id="matplotlib.axis_1">
    <g id="xtick_1">
     <g id="line2d_1">
      <defs>
       <path d="M 0 0 
L 0 3.5 
" id="m2b58f31ccf" style="stroke:#000000;stroke-width:0.8;"/>
      </defs>
      <g>
       <use style="stroke:#000000;stroke-width:0.8;" x="60.095568" xlink:href="#m2b58f31ccf" y="186.917813"/>
      </g>
     </g>
     <g id="text_1">
      <!-- 0 -->
      <g transform="translate(56.914318 201.51625)scale(0.1 -0.1)">
       <defs>
        <path d="M 2034 4250 
Q 1547 4250 1301 3770 
Q 1056 3291 1056 2328 
Q 1056 1369 1301 889 
Q 1547 409 2034 409 
Q 2525 409 2770 889 
Q 3016 1369 3016 2328 
Q 3016 3291 2770 3770 
Q 2525 4250 2034 4250 
z
M 2034 4750 
Q 2819 4750 3233 4129 
Q 3647 3509 3647 2328 
Q 3647 1150 3233 529 
Q 2819 -91 2034 -91 
Q 1250 -91 836 529 
Q 422 1150 422 2328 
Q 422 3509 836 4129 
Q 1250 4750 2034 4750 
z
" id="DejaVuSans-30" transform="scale(0.015625)"/>
       </defs>
       <use xlink:href="#DejaVuSans-30"/>
      </g>
     </g>
    </g>
    <g id="xtick_2">
     <g id="line2d_2">
      <g>
       <use style="stroke:#000000;stroke-width:0.8;" x="102.438868" xlink:href="#m2b58f31ccf" y="186.917813"/>
      </g>
     </g>
     <g id="text_2">
      <!-- 100 -->
      <g transform="translate(92.895118 201.51625)scale(0.1 -0.1)">
       <defs>
        <path d="M 794 531 
L 1825 531 
L 1825 4091 
L 703 3866 
L 703 4441 
L 1819 4666 
L 2450 4666 
L 2450 531 
L 3481 531 
L 3481 0 
L 794 0 
L 794 531 
z
" id="DejaVuSans-31" transform="scale(0.015625)"/>
       </defs>
       <use xlink:href="#DejaVuSans-31"/>
       <use x="63.623047" xlink:href="#DejaVuSans-30"/>
       <use x="127.246094" xlink:href="#DejaVuSans-30"/>
      </g>
     </g>
    </g>
    <g id="xtick_3">
     <g id="line2d_3">
      <g>
       <use style="stroke:#000000;stroke-width:0.8;" x="144.782167" xlink:href="#m2b58f31ccf" y="186.917813"/>
      </g>
     </g>
     <g id="text_3">
      <!-- 200 -->
      <g transform="translate(135.238417 201.51625)scale(0.1 -0.1)">
       <defs>
        <path d="M 1228 531 
L 3431 531 
L 3431 0 
L 469 0 
L 469 531 
Q 828 903 1448 1529 
Q 2069 2156 2228 2338 
Q 2531 2678 2651 2914 
Q 2772 3150 2772 3378 
Q 2772 3750 2511 3984 
Q 2250 4219 1831 4219 
Q 1534 4219 1204 4116 
Q 875 4013 500 3803 
L 500 4441 
Q 881 4594 1212 4672 
Q 1544 4750 1819 4750 
Q 2544 4750 2975 4387 
Q 3406 4025 3406 3419 
Q 3406 3131 3298 2873 
Q 3191 2616 2906 2266 
Q 2828 2175 2409 1742 
Q 1991 1309 1228 531 
z
" id="DejaVuSans-32" transform="scale(0.015625)"/>
       </defs>
       <use xlink:href="#DejaVuSans-32"/>
       <use x="63.623047" xlink:href="#DejaVuSans-30"/>
       <use x="127.246094" xlink:href="#DejaVuSans-30"/>
      </g>
     </g>
    </g>
    <g id="xtick_4">
     <g id="line2d_4">
      <g>
       <use style="stroke:#000000;stroke-width:0.8;" x="187.125466" xlink:href="#m2b58f31ccf" y="186.917813"/>
      </g>
     </g>
     <g id="text_4">
      <!-- 300 -->
      <g transform="translate(177.581716 201.51625)scale(0.1 -0.1)">
       <defs>
        <path d="M 2597 2516 
Q 3050 2419 3304 2112 
Q 3559 1806 3559 1356 
Q 3559 666 3084 287 
Q 2609 -91 1734 -91 
Q 1441 -91 1130 -33 
Q 819 25 488 141 
L 488 750 
Q 750 597 1062 519 
Q 1375 441 1716 441 
Q 2309 441 2620 675 
Q 2931 909 2931 1356 
Q 2931 1769 2642 2001 
Q 2353 2234 1838 2234 
L 1294 2234 
L 1294 2753 
L 1863 2753 
Q 2328 2753 2575 2939 
Q 2822 3125 2822 3475 
Q 2822 3834 2567 4026 
Q 2313 4219 1838 4219 
Q 1578 4219 1281 4162 
Q 984 4106 628 3988 
L 628 4550 
Q 988 4650 1302 4700 
Q 1616 4750 1894 4750 
Q 2613 4750 3031 4423 
Q 3450 4097 3450 3541 
Q 3450 3153 3228 2886 
Q 3006 2619 2597 2516 
z
" id="DejaVuSans-33" transform="scale(0.015625)"/>
       </defs>
       <use xlink:href="#DejaVuSans-33"/>
       <use x="63.623047" xlink:href="#DejaVuSans-30"/>
       <use x="127.246094" xlink:href="#DejaVuSans-30"/>
      </g>
     </g>
    </g>
    <g id="xtick_5">
     <g id="line2d_5">
      <g>
       <use style="stroke:#000000;stroke-width:0.8;" x="229.468766" xlink:href="#m2b58f31ccf" y="186.917813"/>
      </g>
     </g>
     <g id="text_5">
      <!-- 400 -->
      <g transform="translate(219.925016 201.51625)scale(0.1 -0.1)">
       <defs>
        <path d="M 2419 4116 
L 825 1625 
L 2419 1625 
L 2419 4116 
z
M 2253 4666 
L 3047 4666 
L 3047 1625 
L 3713 1625 
L 3713 1100 
L 3047 1100 
L 3047 0 
L 2419 0 
L 2419 1100 
L 313 1100 
L 313 1709 
L 2253 4666 
z
" id="DejaVuSans-34" transform="scale(0.015625)"/>
       </defs>
       <use xlink:href="#DejaVuSans-34"/>
       <use x="63.623047" xlink:href="#DejaVuSans-30"/>
       <use x="127.246094" xlink:href="#DejaVuSans-30"/>
      </g>
     </g>
    </g>
    <g id="xtick_6">
     <g id="line2d_6">
      <g>
       <use style="stroke:#000000;stroke-width:0.8;" x="271.812065" xlink:href="#m2b58f31ccf" y="186.917813"/>
      </g>
     </g>
     <g id="text_6">
      <!-- 500 -->
      <g transform="translate(262.268315 201.51625)scale(0.1 -0.1)">
       <defs>
        <path d="M 691 4666 
L 3169 4666 
L 3169 4134 
L 1269 4134 
L 1269 2991 
Q 1406 3038 1543 3061 
Q 1681 3084 1819 3084 
Q 2600 3084 3056 2656 
Q 3513 2228 3513 1497 
Q 3513 744 3044 326 
Q 2575 -91 1722 -91 
Q 1428 -91 1123 -41 
Q 819 9 494 109 
L 494 744 
Q 775 591 1075 516 
Q 1375 441 1709 441 
Q 2250 441 2565 725 
Q 2881 1009 2881 1497 
Q 2881 1984 2565 2268 
Q 2250 2553 1709 2553 
Q 1456 2553 1204 2497 
Q 953 2441 691 2322 
L 691 4666 
z
" id="DejaVuSans-35" transform="scale(0.015625)"/>
       </defs>
       <use xlink:href="#DejaVuSans-35"/>
       <use x="63.623047" xlink:href="#DejaVuSans-30"/>
       <use x="127.246094" xlink:href="#DejaVuSans-30"/>
      </g>
     </g>
    </g>
    <g id="xtick_7">
     <g id="line2d_7">
      <g>
       <use style="stroke:#000000;stroke-width:0.8;" x="314.155365" xlink:href="#m2b58f31ccf" y="186.917813"/>
      </g>
     </g>
     <g id="text_7">
      <!-- 600 -->
      <g transform="translate(304.611615 201.51625)scale(0.1 -0.1)">
       <defs>
        <path d="M 2113 2584 
Q 1688 2584 1439 2293 
Q 1191 2003 1191 1497 
Q 1191 994 1439 701 
Q 1688 409 2113 409 
Q 2538 409 2786 701 
Q 3034 994 3034 1497 
Q 3034 2003 2786 2293 
Q 2538 2584 2113 2584 
z
M 3366 4563 
L 3366 3988 
Q 3128 4100 2886 4159 
Q 2644 4219 2406 4219 
Q 1781 4219 1451 3797 
Q 1122 3375 1075 2522 
Q 1259 2794 1537 2939 
Q 1816 3084 2150 3084 
Q 2853 3084 3261 2657 
Q 3669 2231 3669 1497 
Q 3669 778 3244 343 
Q 2819 -91 2113 -91 
Q 1303 -91 875 529 
Q 447 1150 447 2328 
Q 447 3434 972 4092 
Q 1497 4750 2381 4750 
Q 2619 4750 2861 4703 
Q 3103 4656 3366 4563 
z
" id="DejaVuSans-36" transform="scale(0.015625)"/>
       </defs>
       <use xlink:href="#DejaVuSans-36"/>
       <use x="63.623047" xlink:href="#DejaVuSans-30"/>
       <use x="127.246094" xlink:href="#DejaVuSans-30"/>
      </g>
     </g>
    </g>
    <g id="text_8">
     <!-- Epochs -->
     <g transform="translate(165.415 216.714063)scale(0.12 -0.12)">
      <defs>
       <path d="M 628 4666 
L 3578 4666 
L 3578 4134 
L 1259 4134 
L 1259 2753 
L 3481 2753 
L 3481 2222 
L 1259 2222 
L 1259 531 
L 3634 531 
L 3634 0 
L 628 0 
L 628 4666 
z
" id="DejaVuSans-45" transform="scale(0.015625)"/>
       <path d="M 1159 525 
L 1159 -1331 
L 581 -1331 
L 581 3500 
L 1159 3500 
L 1159 2969 
Q 1341 3281 1617 3432 
Q 1894 3584 2278 3584 
Q 2916 3584 3314 3078 
Q 3713 2572 3713 1747 
Q 3713 922 3314 415 
Q 2916 -91 2278 -91 
Q 1894 -91 1617 61 
Q 1341 213 1159 525 
z
M 3116 1747 
Q 3116 2381 2855 2742 
Q 2594 3103 2138 3103 
Q 1681 3103 1420 2742 
Q 1159 2381 1159 1747 
Q 1159 1113 1420 752 
Q 1681 391 2138 391 
Q 2594 391 2855 752 
Q 3116 1113 3116 1747 
z
" id="DejaVuSans-70" transform="scale(0.015625)"/>
       <path d="M 1959 3097 
Q 1497 3097 1228 2736 
Q 959 2375 959 1747 
Q 959 1119 1226 758 
Q 1494 397 1959 397 
Q 2419 397 2687 759 
Q 2956 1122 2956 1747 
Q 2956 2369 2687 2733 
Q 2419 3097 1959 3097 
z
M 1959 3584 
Q 2709 3584 3137 3096 
Q 3566 2609 3566 1747 
Q 3566 888 3137 398 
Q 2709 -91 1959 -91 
Q 1206 -91 779 398 
Q 353 888 353 1747 
Q 353 2609 779 3096 
Q 1206 3584 1959 3584 
z
" id="DejaVuSans-6f" transform="scale(0.015625)"/>
       <path d="M 3122 3366 
L 3122 2828 
Q 2878 2963 2633 3030 
Q 2388 3097 2138 3097 
Q 1578 3097 1268 2742 
Q 959 2388 959 1747 
Q 959 1106 1268 751 
Q 1578 397 2138 397 
Q 2388 397 2633 464 
Q 2878 531 3122 666 
L 3122 134 
Q 2881 22 2623 -34 
Q 2366 -91 2075 -91 
Q 1284 -91 818 406 
Q 353 903 353 1747 
Q 353 2603 823 3093 
Q 1294 3584 2113 3584 
Q 2378 3584 2631 3529 
Q 2884 3475 3122 3366 
z
" id="DejaVuSans-63" transform="scale(0.015625)"/>
       <path d="M 3513 2113 
L 3513 0 
L 2938 0 
L 2938 2094 
Q 2938 2591 2744 2837 
Q 2550 3084 2163 3084 
Q 1697 3084 1428 2787 
Q 1159 2491 1159 1978 
L 1159 0 
L 581 0 
L 581 4863 
L 1159 4863 
L 1159 2956 
Q 1366 3272 1645 3428 
Q 1925 3584 2291 3584 
Q 2894 3584 3203 3211 
Q 3513 2838 3513 2113 
z
" id="DejaVuSans-68" transform="scale(0.015625)"/>
       <path d="M 2834 3397 
L 2834 2853 
Q 2591 2978 2328 3040 
Q 2066 3103 1784 3103 
Q 1356 3103 1142 2972 
Q 928 2841 928 2578 
Q 928 2378 1081 2264 
Q 1234 2150 1697 2047 
L 1894 2003 
Q 2506 1872 2764 1633 
Q 3022 1394 3022 966 
Q 3022 478 2636 193 
Q 2250 -91 1575 -91 
Q 1294 -91 989 -36 
Q 684 19 347 128 
L 347 722 
Q 666 556 975 473 
Q 1284 391 1588 391 
Q 1994 391 2212 530 
Q 2431 669 2431 922 
Q 2431 1156 2273 1281 
Q 2116 1406 1581 1522 
L 1381 1569 
Q 847 1681 609 1914 
Q 372 2147 372 2553 
Q 372 3047 722 3315 
Q 1072 3584 1716 3584 
Q 2034 3584 2315 3537 
Q 2597 3491 2834 3397 
z
" id="DejaVuSans-73" transform="scale(0.015625)"/>
      </defs>
      <use xlink:href="#DejaVuSans-45"/>
      <use x="63.183594" xlink:href="#DejaVuSans-70"/>
      <use x="126.660156" xlink:href="#DejaVuSans-6f"/>
      <use x="187.841797" xlink:href="#DejaVuSans-63"/>
      <use x="242.822266" xlink:href="#DejaVuSans-68"/>
      <use x="306.201172" xlink:href="#DejaVuSans-73"/>
     </g>
    </g>
   </g>
   <g id="matplotlib.axis_2">
    <g id="ytick_1">
     <g id="line2d_8">
      <defs>
       <path d="M 0 0 
L -3.5 0 
" id="m65585d41f0" style="stroke:#000000;stroke-width:0.8;"/>
      </defs>
      <g>
       <use style="stroke:#000000;stroke-width:0.8;" x="47.41375" xlink:href="#m65585d41f0" y="180.016782"/>
      </g>
     </g>
     <g id="text_9">
      <!-- $\mathdefault{10^{0}}$ -->
      <g transform="translate(22.81375 183.816)scale(0.1 -0.1)">
       <use transform="translate(0 0.765625)" xlink:href="#DejaVuSans-31"/>
       <use transform="translate(63.623047 0.765625)" xlink:href="#DejaVuSans-30"/>
       <use transform="translate(128.203125 39.046875)scale(0.7)" xlink:href="#DejaVuSans-30"/>
      </g>
     </g>
    </g>
    <g id="ytick_2">
     <g id="line2d_9">
      <g>
       <use style="stroke:#000000;stroke-width:0.8;" x="47.41375" xlink:href="#m65585d41f0" y="135.627661"/>
      </g>
     </g>
     <g id="text_10">
      <!-- $\mathdefault{10^{1}}$ -->
      <g transform="translate(22.81375 139.42688)scale(0.1 -0.1)">
       <use transform="translate(0 0.684375)" xlink:href="#DejaVuSans-31"/>
       <use transform="translate(63.623047 0.684375)" xlink:href="#DejaVuSans-30"/>
       <use transform="translate(128.203125 38.965625)scale(0.7)" xlink:href="#DejaVuSans-31"/>
      </g>
     </g>
    </g>
    <g id="ytick_3">
     <g id="line2d_10">
      <g>
       <use style="stroke:#000000;stroke-width:0.8;" x="47.41375" xlink:href="#m65585d41f0" y="91.238541"/>
      </g>
     </g>
     <g id="text_11">
      <!-- $\mathdefault{10^{2}}$ -->
      <g transform="translate(22.81375 95.03776)scale(0.1 -0.1)">
       <use transform="translate(0 0.765625)" xlink:href="#DejaVuSans-31"/>
       <use transform="translate(63.623047 0.765625)" xlink:href="#DejaVuSans-30"/>
       <use transform="translate(128.203125 39.046875)scale(0.7)" xlink:href="#DejaVuSans-32"/>
      </g>
     </g>
    </g>
    <g id="ytick_4">
     <g id="line2d_11">
      <g>
       <use style="stroke:#000000;stroke-width:0.8;" x="47.41375" xlink:href="#m65585d41f0" y="46.849421"/>
      </g>
     </g>
     <g id="text_12">
      <!-- $\mathdefault{10^{3}}$ -->
      <g transform="translate(22.81375 50.64864)scale(0.1 -0.1)">
       <use transform="translate(0 0.765625)" xlink:href="#DejaVuSans-31"/>
       <use transform="translate(63.623047 0.765625)" xlink:href="#DejaVuSans-30"/>
       <use transform="translate(128.203125 39.046875)scale(0.7)" xlink:href="#DejaVuSans-33"/>
      </g>
     </g>
    </g>
    <g id="ytick_5">
     <g id="line2d_12">
      <defs>
       <path d="M 0 0 
L -2 0 
" id="mc61d192920" style="stroke:#000000;stroke-width:0.6;"/>
      </defs>
      <g>
       <use style="stroke:#000000;stroke-width:0.6;" x="47.41375" xlink:href="#mc61d192920" y="186.892743"/>
      </g>
     </g>
    </g>
    <g id="ytick_6">
     <g id="line2d_13">
      <g>
       <use style="stroke:#000000;stroke-width:0.6;" x="47.41375" xlink:href="#mc61d192920" y="184.318532"/>
      </g>
     </g>
    </g>
    <g id="ytick_7">
     <g id="line2d_14">
      <g>
       <use style="stroke:#000000;stroke-width:0.6;" x="47.41375" xlink:href="#mc61d192920" y="182.047916"/>
      </g>
     </g>
    </g>
    <g id="ytick_8">
     <g id="line2d_15">
      <g>
       <use style="stroke:#000000;stroke-width:0.6;" x="47.41375" xlink:href="#mc61d192920" y="166.654325"/>
      </g>
     </g>
    </g>
    <g id="ytick_9">
     <g id="line2d_16">
      <g>
       <use style="stroke:#000000;stroke-width:0.6;" x="47.41375" xlink:href="#mc61d192920" y="158.837789"/>
      </g>
     </g>
    </g>
    <g id="ytick_10">
     <g id="line2d_17">
      <g>
       <use style="stroke:#000000;stroke-width:0.6;" x="47.41375" xlink:href="#mc61d192920" y="153.291868"/>
      </g>
     </g>
    </g>
    <g id="ytick_11">
     <g id="line2d_18">
      <g>
       <use style="stroke:#000000;stroke-width:0.6;" x="47.41375" xlink:href="#mc61d192920" y="148.990118"/>
      </g>
     </g>
    </g>
    <g id="ytick_12">
     <g id="line2d_19">
      <g>
       <use style="stroke:#000000;stroke-width:0.6;" x="47.41375" xlink:href="#mc61d192920" y="145.475332"/>
      </g>
     </g>
    </g>
    <g id="ytick_13">
     <g id="line2d_20">
      <g>
       <use style="stroke:#000000;stroke-width:0.6;" x="47.41375" xlink:href="#mc61d192920" y="142.503623"/>
      </g>
     </g>
    </g>
    <g id="ytick_14">
     <g id="line2d_21">
      <g>
       <use style="stroke:#000000;stroke-width:0.6;" x="47.41375" xlink:href="#mc61d192920" y="139.929412"/>
      </g>
     </g>
    </g>
    <g id="ytick_15">
     <g id="line2d_22">
      <g>
       <use style="stroke:#000000;stroke-width:0.6;" x="47.41375" xlink:href="#mc61d192920" y="137.658796"/>
      </g>
     </g>
    </g>
    <g id="ytick_16">
     <g id="line2d_23">
      <g>
       <use style="stroke:#000000;stroke-width:0.6;" x="47.41375" xlink:href="#mc61d192920" y="122.265205"/>
      </g>
     </g>
    </g>
    <g id="ytick_17">
     <g id="line2d_24">
      <g>
       <use style="stroke:#000000;stroke-width:0.6;" x="47.41375" xlink:href="#mc61d192920" y="114.448669"/>
      </g>
     </g>
    </g>
    <g id="ytick_18">
     <g id="line2d_25">
      <g>
       <use style="stroke:#000000;stroke-width:0.6;" x="47.41375" xlink:href="#mc61d192920" y="108.902748"/>
      </g>
     </g>
    </g>
    <g id="ytick_19">
     <g id="line2d_26">
      <g>
       <use style="stroke:#000000;stroke-width:0.6;" x="47.41375" xlink:href="#mc61d192920" y="104.600998"/>
      </g>
     </g>
    </g>
    <g id="ytick_20">
     <g id="line2d_27">
      <g>
       <use style="stroke:#000000;stroke-width:0.6;" x="47.41375" xlink:href="#mc61d192920" y="101.086212"/>
      </g>
     </g>
    </g>
    <g id="ytick_21">
     <g id="line2d_28">
      <g>
       <use style="stroke:#000000;stroke-width:0.6;" x="47.41375" xlink:href="#mc61d192920" y="98.114503"/>
      </g>
     </g>
    </g>
    <g id="ytick_22">
     <g id="line2d_29">
      <g>
       <use style="stroke:#000000;stroke-width:0.6;" x="47.41375" xlink:href="#mc61d192920" y="95.540291"/>
      </g>
     </g>
    </g>
    <g id="ytick_23">
     <g id="line2d_30">
      <g>
       <use style="stroke:#000000;stroke-width:0.6;" x="47.41375" xlink:href="#mc61d192920" y="93.269676"/>
      </g>
     </g>
    </g>
    <g id="ytick_24">
     <g id="line2d_31">
      <g>
       <use style="stroke:#000000;stroke-width:0.6;" x="47.41375" xlink:href="#mc61d192920" y="77.876085"/>
      </g>
     </g>
    </g>
    <g id="ytick_25">
     <g id="line2d_32">
      <g>
       <use style="stroke:#000000;stroke-width:0.6;" x="47.41375" xlink:href="#mc61d192920" y="70.059548"/>
      </g>
     </g>
    </g>
    <g id="ytick_26">
     <g id="line2d_33">
      <g>
       <use style="stroke:#000000;stroke-width:0.6;" x="47.41375" xlink:href="#mc61d192920" y="64.513628"/>
      </g>
     </g>
    </g>
    <g id="ytick_27">
     <g id="line2d_34">
      <g>
       <use style="stroke:#000000;stroke-width:0.6;" x="47.41375" xlink:href="#mc61d192920" y="60.211878"/>
      </g>
     </g>
    </g>
    <g id="ytick_28">
     <g id="line2d_35">
      <g>
       <use style="stroke:#000000;stroke-width:0.6;" x="47.41375" xlink:href="#mc61d192920" y="56.697092"/>
      </g>
     </g>
    </g>
    <g id="ytick_29">
     <g id="line2d_36">
      <g>
       <use style="stroke:#000000;stroke-width:0.6;" x="47.41375" xlink:href="#mc61d192920" y="53.725383"/>
      </g>
     </g>
    </g>
    <g id="ytick_30">
     <g id="line2d_37">
      <g>
       <use style="stroke:#000000;stroke-width:0.6;" x="47.41375" xlink:href="#mc61d192920" y="51.151171"/>
      </g>
     </g>
    </g>
    <g id="ytick_31">
     <g id="line2d_38">
      <g>
       <use style="stroke:#000000;stroke-width:0.6;" x="47.41375" xlink:href="#mc61d192920" y="48.880556"/>
      </g>
     </g>
    </g>
    <g id="ytick_32">
     <g id="line2d_39">
      <g>
       <use style="stroke:#000000;stroke-width:0.6;" x="47.41375" xlink:href="#mc61d192920" y="33.486964"/>
      </g>
     </g>
    </g>
    <g id="ytick_33">
     <g id="line2d_40">
      <g>
       <use style="stroke:#000000;stroke-width:0.6;" x="47.41375" xlink:href="#mc61d192920" y="25.670428"/>
      </g>
     </g>
    </g>
    <g id="text_13">
     <!-- Loss -->
     <g transform="translate(16.318125 118.538438)rotate(-90)scale(0.12 -0.12)">
      <defs>
       <path d="M 628 4666 
L 1259 4666 
L 1259 531 
L 3531 531 
L 3531 0 
L 628 0 
L 628 4666 
z
" id="DejaVuSans-4c" transform="scale(0.015625)"/>
      </defs>
      <use xlink:href="#DejaVuSans-4c"/>
      <use x="53.962891" xlink:href="#DejaVuSans-6f"/>
      <use x="115.144531" xlink:href="#DejaVuSans-73"/>
      <use x="167.244141" xlink:href="#DejaVuSans-73"/>
     </g>
    </g>
   </g>
   <g id="line2d_41">
    <path clip-path="url(#p531d085985)" d="M 60.095568 31.25054 
L 60.519001 33.738645 
L 61.7893 37.707858 
L 63.059599 41.027222 
L 64.329898 43.783108 
L 65.600197 46.119076 
L 68.564228 50.640952 
L 73.221991 57.122641 
L 76.186022 60.954527 
L 78.72662 63.856156 
L 81.690651 66.870235 
L 84.654682 69.527769 
L 87.618713 71.876234 
L 90.159311 73.715132 
L 93.546775 75.767505 
L 101.592002 79.87568 
L 105.402899 81.4163 
L 109.637229 82.854587 
L 114.718424 84.35856 
L 126.997981 87.440572 
L 131.232311 88.213052 
L 139.277538 89.447205 
L 150.710229 90.81405 
L 164.683518 92.138816 
L 201.098755 94.762389 
L 207.026817 95.11965 
L 219.729807 95.894853 
L 237.513993 96.878945 
L 250.216983 97.552504 
L 269.271467 98.500385 
L 273.92923 98.713949 
L 292.983715 99.579062 
L 313.731932 100.444877 
L 313.731932 100.444877 
" style="fill:none;stroke:#2ca02c;stroke-linecap:square;stroke-opacity:0.7;stroke-width:0.5;"/>
   </g>
   <g id="line2d_42">
    <path clip-path="url(#p531d085985)" d="M 60.095568 147.454679 
L 61.365867 173.554671 
L 61.7893 177.475081 
L 62.212733 175.508086 
L 62.636166 175.170574 
L 63.059599 175.48328 
L 63.483032 174.739805 
L 63.906465 173.098425 
L 64.329898 172.323333 
L 65.176764 171.484534 
L 66.447063 167.85581 
L 66.870496 167.182251 
L 67.717362 166.483579 
L 69.411094 165.808093 
L 69.834527 165.445187 
L 70.681393 163.894743 
L 71.528259 162.734755 
L 72.375125 162.246754 
L 74.068857 161.666571 
L 76.609455 160.49681 
L 77.456321 160.238444 
L 79.150053 159.852732 
L 79.573486 159.856767 
L 80.843785 159.568932 
L 81.690651 159.445184 
L 82.537517 159.312447 
L 83.807816 159.093965 
L 84.654682 158.963258 
L 85.501548 158.909946 
L 92.699909 157.741735 
L 95.66394 157.462794 
L 97.357672 157.33291 
L 105.402899 156.938289 
L 107.943497 156.824719 
L 109.213796 156.825016 
L 112.601259 156.714795 
L 117.259022 156.633151 
L 118.952754 156.552125 
L 119.79962 156.545224 
L 120.646486 156.462804 
L 121.493352 156.460157 
L 124.03395 156.326457 
L 131.232311 156.265834 
L 133.772909 156.202912 
L 135.043208 156.226339 
L 138.007239 156.154908 
L 140.124404 156.182473 
L 140.97127 156.195297 
L 142.665002 156.123172 
L 145.2056 156.205892 
L 146.475899 156.128055 
L 148.169631 156.118287 
L 152.827394 156.118466 
L 162.566353 156.108271 
L 164.683518 156.14991 
L 165.530384 156.116392 
L 170.61158 156.130635 
L 174.422477 156.06644 
L 176.539642 156.067336 
L 181.620838 156.041106 
L 186.702034 156.036802 
L 198.558157 155.972456 
L 201.098755 155.98225 
L 216.342343 155.882847 
L 219.306374 155.861633 
L 220.15324 155.882732 
L 223.964137 155.869555 
L 226.504735 155.83793 
L 229.045333 155.841312 
L 231.162498 155.844423 
L 234.549962 155.830598 
L 235.396828 155.850427 
L 236.243694 155.798088 
L 238.784292 155.818401 
L 240.054591 155.792686 
L 243.018622 155.779493 
L 244.712354 155.744692 
L 245.55922 155.778047 
L 254.874746 155.751572 
L 256.568478 155.708239 
L 258.685643 155.735068 
L 281.974457 155.615917 
L 284.938488 155.634546 
L 289.596251 155.60126 
L 290.443117 155.615959 
L 292.983715 155.576108 
L 293.830581 155.609786 
L 294.677447 155.621337 
L 295.947746 155.563617 
L 297.218045 155.555559 
L 303.146107 155.585261 
L 306.110138 155.513915 
L 309.074169 155.558237 
L 313.731932 155.531227 
L 313.731932 155.531227 
" style="fill:none;stroke:#1f77b4;stroke-linecap:square;stroke-width:0.5;"/>
   </g>
   <g id="line2d_43">
    <path clip-path="url(#p531d085985)" d="M 60.095568 39.153305 
L 62.212733 44.25988 
L 64.329898 48.058643 
L 66.447063 51.273152 
L 68.564228 54.238641 
L 70.681393 57.181625 
L 72.798558 59.984241 
L 74.915723 62.541982 
L 77.032888 64.85238 
L 79.150053 66.96922 
L 81.267218 68.895663 
L 83.384383 70.668676 
L 85.501548 72.271727 
L 87.618713 73.78728 
L 89.735878 75.085909 
L 91.853043 76.23141 
L 93.970208 77.39754 
L 96.087373 78.552264 
L 98.204538 79.545996 
L 100.321703 80.463537 
L 102.438868 81.270532 
L 104.556033 81.996376 
L 106.673198 82.72411 
L 108.790363 83.342808 
L 110.907528 83.885985 
L 113.024692 84.426053 
L 115.141857 84.953948 
L 117.259022 85.503802 
L 119.376187 86.046737 
L 121.493352 86.529449 
L 123.610517 86.994296 
L 125.727682 87.357359 
L 127.844847 87.725894 
L 129.962012 87.983634 
L 132.079177 88.268706 
L 134.196342 88.554695 
L 136.313507 88.777442 
L 138.430672 89.039082 
L 140.547837 89.194003 
L 142.665002 89.303266 
L 144.782167 89.634698 
L 146.899332 89.767515 
L 149.016497 89.905034 
L 151.133662 90.047485 
L 153.250827 90.179859 
L 155.367992 90.35098 
L 157.485157 90.445121 
L 159.602322 90.540952 
L 161.719487 90.648172 
L 163.836652 90.715948 
L 165.953817 90.840607 
L 168.070982 90.921076 
L 170.188147 90.910916 
L 172.305312 91.049797 
L 174.422477 91.069682 
L 176.539642 91.157171 
L 178.656807 91.114453 
L 180.773972 91.210755 
L 182.891137 91.229977 
L 185.008302 91.279548 
L 187.125466 91.262299 
L 189.242631 91.354523 
L 191.359796 91.356336 
L 193.476961 91.309615 
L 195.594126 91.378618 
L 197.711291 91.363659 
L 199.828456 91.360692 
L 201.945621 91.367662 
L 204.062786 91.447033 
L 206.179951 91.359546 
L 208.297116 91.4247 
L 210.414281 91.40194 
L 212.531446 91.409766 
L 214.648611 91.396209 
L 216.765776 91.264517 
L 218.882941 91.381616 
L 221.000106 91.33624 
L 223.117271 91.340043 
L 225.234436 91.304037 
L 227.351601 91.286714 
L 229.468766 91.266823 
L 231.585931 91.279134 
L 233.703096 91.231548 
L 235.820261 91.15101 
L 237.937426 91.196266 
L 240.054591 91.194542 
L 242.171756 91.118381 
L 244.288921 91.114045 
L 246.406086 91.099393 
L 248.523251 90.995983 
L 250.640416 90.969301 
L 252.757581 90.958776 
L 254.874746 90.937975 
L 256.991911 90.862996 
L 259.109076 90.879263 
L 261.226241 90.809301 
L 263.343405 90.798755 
L 265.46057 90.765217 
L 267.577735 90.714886 
L 269.6949 90.695028 
L 271.812065 90.680571 
L 273.92923 90.652975 
L 276.046395 90.577142 
L 278.16356 90.532077 
L 280.280725 90.524695 
L 282.39789 90.448196 
L 284.515055 90.421103 
L 286.63222 90.407924 
L 288.749385 90.38295 
L 290.86655 90.29449 
L 292.983715 90.303049 
L 295.10088 90.245211 
L 297.218045 90.238803 
L 299.33521 90.126069 
L 301.452375 90.086612 
L 303.56954 90.113845 
L 305.686705 90.035619 
L 307.80387 89.975089 
L 309.921035 89.962361 
L 312.0382 89.906182 
" style="fill:none;stroke:#d62728;stroke-linecap:square;stroke-opacity:0.7;stroke-width:0.5;"/>
   </g>
   <g id="line2d_44">
    <path clip-path="url(#p531d085985)" d="M 60.095568 32.446457 
L 60.519001 36.132862 
L 61.365867 39.000484 
L 62.636166 42.045704 
L 63.906465 44.638011 
L 65.600197 47.479333 
L 67.717362 50.701793 
L 72.375125 57.244961 
L 74.915723 60.467387 
L 77.879754 63.88046 
L 80.420352 66.478393 
L 82.96095 68.824628 
L 85.501548 70.945911 
L 90.582744 74.628633 
L 92.699909 75.89599 
L 98.204538 78.788283 
L 101.592002 80.43311 
L 105.826332 82.172126 
L 112.601259 84.47832 
L 116.412156 85.651962 
L 120.223053 86.620354 
L 124.457383 87.519245 
L 131.232311 88.771509 
L 135.043208 89.413995 
L 140.124404 90.128366 
L 158.332023 92.078531 
L 176.539642 93.514991 
L 189.666064 94.396222 
L 204.062786 95.299273 
L 218.459508 96.119126 
L 224.811003 96.469733 
L 238.360859 97.1871 
L 242.595189 97.393 
L 261.649674 98.328047 
L 313.731932 100.590826 
L 313.731932 100.590826 
" style="fill:none;stroke:#2ca02c;stroke-linecap:square;stroke-opacity:0.7;stroke-width:0.5;"/>
   </g>
   <g id="line2d_45">
    <path clip-path="url(#p531d085985)" d="M 60.095568 168.820711 
L 60.519001 159.096715 
L 60.942434 169.817052 
L 61.7893 179.505085 
L 62.212733 177.300822 
L 62.636166 172.445243 
L 63.059599 173.025208 
L 63.906465 175.040505 
L 64.329898 174.945356 
L 64.753331 171.310331 
L 65.176764 169.480736 
L 66.02363 169.736934 
L 66.447063 168.917144 
L 66.870496 167.334509 
L 67.293929 166.737754 
L 67.717362 166.346263 
L 68.564228 166.022097 
L 68.987661 165.494111 
L 69.411094 164.512278 
L 69.834527 163.935374 
L 70.681393 163.484369 
L 72.375125 162.804571 
L 73.221991 162.530765 
L 76.609455 161.257096 
L 78.303187 160.75697 
L 83.384383 159.402062 
L 84.654682 159.015155 
L 85.501548 158.907804 
L 86.771847 158.681238 
L 87.618713 158.577577 
L 88.465579 158.470326 
L 89.735878 158.372786 
L 91.006177 158.295975 
L 91.853043 158.104564 
L 93.970208 158.075068 
L 94.817074 157.952624 
L 102.015435 157.65057 
L 113.871558 156.970581 
L 114.718424 156.95035 
L 117.259022 156.826644 
L 118.105888 156.811739 
L 129.115146 156.640254 
L 129.962012 156.614658 
L 130.808878 156.596774 
L 131.232311 156.564649 
L 131.655744 156.65278 
L 132.50261 156.557607 
L 140.124404 156.487421 
L 141.818136 156.429459 
L 149.863363 156.416562 
L 151.980528 156.378838 
L 154.097693 156.400615 
L 159.602322 156.352566 
L 161.719487 156.342436 
L 162.566353 156.356981 
L 177.809941 156.281063 
L 180.773972 156.30128 
L 184.161436 156.251268 
L 214.648611 156.104827 
L 216.342343 156.051947 
L 218.036075 156.08513 
L 237.09056 156.010541 
L 237.937426 155.975255 
L 238.784292 155.977174 
L 242.595189 155.945053 
L 243.442055 155.961495 
L 245.982653 155.936028 
L 248.523251 155.957073 
L 250.640416 155.924555 
L 253.181014 155.937162 
L 256.568478 155.885673 
L 259.532509 155.900145 
L 281.127591 155.809423 
L 283.244756 155.775552 
L 285.361921 155.794126 
L 291.289983 155.784682 
L 292.983715 155.776137 
L 295.947746 155.74615 
L 311.614767 155.697636 
L 313.308499 155.701692 
L 313.731932 155.728457 
L 313.731932 155.728457 
" style="fill:none;stroke:#1f77b4;stroke-linecap:square;stroke-width:0.5;"/>
   </g>
   <g id="line2d_46">
    <path clip-path="url(#p531d085985)" d="M 60.095568 40.611282 
L 62.212733 45.020818 
L 64.329898 48.472512 
L 66.447063 51.602835 
L 68.564228 54.651385 
L 70.681393 57.501458 
L 72.798558 60.200485 
L 74.915723 62.708172 
L 77.032888 64.968007 
L 79.150053 67.095782 
L 81.267218 68.985555 
L 83.384383 70.777853 
L 85.501548 72.415949 
L 87.618713 73.945833 
L 89.735878 75.2825 
L 91.853043 76.508441 
L 93.970208 77.565871 
L 96.087373 78.585379 
L 98.204538 79.750367 
L 100.321703 80.670003 
L 102.438868 81.47617 
L 104.556033 82.276661 
L 106.673198 82.983394 
L 108.790363 83.636587 
L 110.907528 84.310506 
L 113.024692 84.892273 
L 115.141857 85.499349 
L 117.259022 86.00407 
L 119.376187 86.454195 
L 121.493352 86.87415 
L 123.610517 87.228446 
L 125.727682 87.552461 
L 127.844847 87.936777 
L 129.962012 88.248436 
L 132.079177 88.437916 
L 134.196342 88.815349 
L 136.313507 89.013322 
L 138.430672 89.254471 
L 140.547837 89.3851 
L 142.665002 89.712305 
L 144.782167 89.8604 
L 146.899332 90.015666 
L 149.016497 90.168925 
L 151.133662 90.318427 
L 153.250827 90.461136 
L 155.367992 90.55551 
L 157.485157 90.64751 
L 159.602322 90.754217 
L 161.719487 90.864931 
L 163.836652 91.009005 
L 165.953817 90.973928 
L 168.070982 91.078631 
L 170.188147 91.218097 
L 172.305312 91.252494 
L 174.422477 91.336733 
L 176.539642 91.433102 
L 178.656807 91.438874 
L 180.773972 91.46856 
L 182.891137 91.517803 
L 185.008302 91.56655 
L 187.125466 91.526539 
L 189.242631 91.606259 
L 191.359796 91.612313 
L 193.476961 91.689812 
L 195.594126 91.65322 
L 197.711291 91.684341 
L 199.828456 91.701142 
L 201.945621 91.720643 
L 204.062786 91.686304 
L 206.179951 91.657093 
L 208.297116 91.67366 
L 210.414281 91.693163 
L 212.531446 91.669088 
L 214.648611 91.671018 
L 216.765776 91.737951 
L 218.882941 91.655816 
L 221.000106 91.536747 
L 223.117271 91.563682 
L 225.234436 91.621991 
L 227.351601 91.616869 
L 229.468766 91.644269 
L 231.585931 91.577737 
L 233.703096 91.558331 
L 235.820261 91.497159 
L 237.937426 91.484285 
L 240.054591 91.477334 
L 242.171756 91.450771 
L 244.288921 91.412647 
L 246.406086 91.395437 
L 248.523251 91.388974 
L 250.640416 91.33334 
L 252.757581 91.305034 
L 254.874746 91.267252 
L 256.991911 91.250523 
L 259.109076 91.234987 
L 261.226241 91.247572 
L 263.343405 91.123055 
L 265.46057 91.127471 
L 267.577735 91.157211 
L 269.6949 91.157966 
L 271.812065 91.049675 
L 273.92923 91.046461 
L 276.046395 90.972994 
L 278.16356 90.969612 
L 280.280725 90.920003 
L 282.39789 90.829348 
L 284.515055 90.870237 
L 286.63222 90.821698 
L 288.749385 90.849936 
L 290.86655 90.776411 
L 292.983715 90.764111 
L 295.10088 90.703582 
L 297.218045 90.628921 
L 299.33521 90.611446 
L 301.452375 90.587973 
L 303.56954 90.524371 
L 305.686705 90.54943 
L 307.80387 90.438575 
L 309.921035 90.419558 
L 312.0382 90.370986 
" style="fill:none;stroke:#d62728;stroke-linecap:square;stroke-opacity:0.7;stroke-width:0.5;"/>
   </g>
   <g id="line2d_47">
    <path clip-path="url(#p531d085985)" d="M 60.095568 32.284548 
L 60.519001 36.027227 
L 61.365867 38.916511 
L 62.636166 42.034117 
L 63.906465 44.564319 
L 65.176764 46.62778 
L 67.293929 49.805496 
L 71.528259 55.913358 
L 75.339156 60.855754 
L 77.879754 63.709551 
L 79.996919 65.808438 
L 82.537517 68.061272 
L 85.924981 70.798186 
L 89.312445 73.282721 
L 93.546775 75.756808 
L 101.592002 79.835344 
L 104.1326 80.945368 
L 109.637229 82.917843 
L 114.718424 84.492949 
L 123.187084 86.529157 
L 128.26828 87.539194 
L 133.349476 88.476436 
L 137.583806 89.237706 
L 153.67426 91.394716 
L 162.989786 92.288655 
L 167.224116 92.639229 
L 173.152178 93.10486 
L 179.503673 93.567503 
L 198.98159 94.841761 
L 233.279663 96.768793 
L 254.451313 97.829498 
L 260.379375 98.114294 
L 266.730869 98.405991 
L 272.658931 98.688083 
L 281.551024 99.083504 
L 298.911777 99.839218 
L 305.686705 100.108775 
L 308.650736 100.252844 
L 312.885066 100.41746 
L 313.731932 100.444485 
L 313.731932 100.444485 
" style="fill:none;stroke:#2ca02c;stroke-linecap:square;stroke-opacity:0.7;stroke-width:0.5;"/>
   </g>
   <g id="line2d_48">
    <path clip-path="url(#p531d085985)" d="M 60.095568 172.188438 
L 60.519001 159.240031 
L 60.942434 169.51368 
L 61.7893 179.414116 
L 62.212733 176.768171 
L 62.636166 171.72806 
L 63.059599 172.380477 
L 63.483032 173.312707 
L 63.906465 173.917634 
L 64.329898 173.0085 
L 64.753331 169.52125 
L 65.176764 168.419933 
L 66.02363 168.705265 
L 66.447063 168.195792 
L 66.870496 166.44577 
L 67.293929 165.326034 
L 67.717362 164.730594 
L 68.564228 164.204571 
L 69.834527 162.694551 
L 70.681393 161.97989 
L 71.951692 160.825098 
L 72.798558 160.501276 
L 74.49229 160.20774 
L 75.339156 160.115878 
L 81.690651 159.112408 
L 84.231249 158.880144 
L 85.078115 158.793219 
L 86.348414 158.591517 
L 87.19528 158.348378 
L 87.618713 158.351933 
L 88.042146 158.229458 
L 88.465579 158.276087 
L 90.582744 157.949603 
L 91.006177 157.979684 
L 91.853043 157.893641 
L 97.781105 157.370078 
L 100.745136 157.104467 
L 102.438868 156.990784 
L 104.556033 156.875619 
L 107.520064 156.86945 
L 108.36693 156.780808 
L 109.213796 156.769039 
L 111.330961 156.705732 
L 124.03395 156.434636 
L 124.880816 156.398506 
L 126.574548 156.339692 
L 127.844847 156.38782 
L 129.115146 156.349685 
L 129.962012 156.313346 
L 130.808878 156.293379 
L 132.926043 156.248849 
L 146.899332 156.029042 
L 149.43993 156.050704 
L 150.710229 156.023543 
L 152.403961 156.078643 
L 153.67426 156.001154 
L 155.367992 156.012241 
L 157.485157 156.043049 
L 159.178889 156.029476 
L 161.719487 156.008949 
L 172.305312 155.968105 
L 173.999044 155.979565 
L 174.84591 156.004001 
L 177.809941 155.938014 
L 179.927106 155.972225 
L 181.620838 155.957956 
L 188.819198 155.944379 
L 193.900394 155.912496 
L 195.170693 155.912758 
L 199.405023 155.898594 
L 201.522188 155.883069 
L 236.243694 155.747681 
L 238.784292 155.765552 
L 240.901457 155.692195 
L 250.640416 155.685401 
L 260.379375 155.645087 
L 262.073107 155.645374 
L 264.190271 155.623948 
L 267.577735 155.637095 
L 271.388632 155.60022 
L 281.127591 155.573726 
L 282.821323 155.585694 
L 285.361921 155.544778 
L 287.902519 155.538412 
L 290.019684 155.545593 
L 292.983715 155.521924 
L 296.371179 155.494145 
L 303.992973 155.478571 
L 311.614767 155.472896 
L 313.731932 155.47417 
L 313.731932 155.47417 
" style="fill:none;stroke:#1f77b4;stroke-linecap:square;stroke-width:0.5;"/>
   </g>
   <g id="line2d_49">
    <path clip-path="url(#p531d085985)" d="M 60.095568 41.202269 
L 62.212733 45.624833 
L 64.329898 48.907877 
L 66.447063 51.985416 
L 68.564228 55.018065 
L 70.681393 57.887357 
L 72.798558 60.570372 
L 74.915723 62.975168 
L 77.032888 65.165358 
L 79.150053 67.114045 
L 81.267218 68.833163 
L 83.384383 70.519051 
L 85.501548 72.121575 
L 87.618713 73.533249 
L 89.735878 74.820039 
L 91.853043 75.993212 
L 93.970208 77.035776 
L 96.087373 78.085091 
L 98.204538 79.109311 
L 100.321703 80.053109 
L 102.438868 80.959711 
L 104.556033 81.66513 
L 106.673198 82.366631 
L 108.790363 83.068204 
L 110.907528 83.708985 
L 113.024692 84.258202 
L 115.141857 84.785233 
L 117.259022 85.25456 
L 119.376187 85.682611 
L 121.493352 86.126266 
L 123.610517 86.475475 
L 125.727682 86.847936 
L 127.844847 87.150019 
L 129.962012 87.574973 
L 132.079177 87.942987 
L 134.196342 88.216947 
L 136.313507 88.594076 
L 138.430672 88.892058 
L 140.547837 89.187662 
L 142.665002 89.411928 
L 144.782167 89.655449 
L 146.899332 89.842929 
L 149.016497 90.066228 
L 151.133662 90.217785 
L 153.250827 90.395691 
L 155.367992 90.505094 
L 157.485157 90.651838 
L 159.602322 90.718847 
L 161.719487 90.885767 
L 163.836652 90.997487 
L 165.953817 91.048501 
L 168.070982 91.176344 
L 170.188147 91.254382 
L 172.305312 91.265048 
L 174.422477 91.338518 
L 176.539642 91.45541 
L 178.656807 91.493161 
L 180.773972 91.510584 
L 182.891137 91.559024 
L 185.008302 91.594971 
L 187.125466 91.682955 
L 189.242631 91.687147 
L 191.359796 91.751456 
L 193.476961 91.769497 
L 195.594126 91.761746 
L 197.711291 91.833447 
L 199.828456 91.775539 
L 201.945621 91.849342 
L 204.062786 91.784979 
L 206.179951 91.839831 
L 208.297116 91.853355 
L 210.414281 91.902372 
L 212.531446 91.830288 
L 214.648611 91.887201 
L 216.765776 91.91235 
L 218.882941 91.88366 
L 221.000106 91.886582 
L 223.117271 91.821983 
L 225.234436 91.909428 
L 227.351601 91.867411 
L 229.468766 91.847066 
L 231.585931 91.830188 
L 233.703096 91.785917 
L 235.820261 91.74743 
L 237.937426 91.835703 
L 240.054591 91.807692 
L 242.171756 91.759318 
L 244.288921 91.727864 
L 246.406086 91.65644 
L 248.523251 91.709324 
L 250.640416 91.6488 
L 252.757581 91.617825 
L 254.874746 91.648053 
L 256.991911 91.594182 
L 259.109076 91.522254 
L 261.226241 91.548348 
L 263.343405 91.458273 
L 265.46057 91.499726 
L 267.577735 91.512654 
L 269.6949 91.393893 
L 271.812065 91.400925 
L 273.92923 91.36081 
L 276.046395 91.34085 
L 278.16356 91.291231 
L 280.280725 91.304662 
L 282.39789 91.253556 
L 284.515055 91.207782 
L 286.63222 91.212001 
L 288.749385 91.140398 
L 290.86655 91.132215 
L 292.983715 91.046099 
L 295.10088 90.934706 
L 297.218045 91.042201 
L 299.33521 90.896062 
L 301.452375 90.966178 
L 303.56954 90.863255 
L 305.686705 90.850959 
L 307.80387 90.826168 
L 309.921035 90.715676 
L 312.0382 90.742786 
" style="fill:none;stroke:#d62728;stroke-linecap:square;stroke-opacity:0.7;stroke-width:0.5;"/>
   </g>
   <g id="line2d_50">
    <path clip-path="url(#p531d085985)" d="M 60.095568 32.570837 
L 60.519001 36.291647 
L 61.365867 39.15753 
L 62.636166 42.212653 
L 63.906465 44.732807 
L 65.600197 47.504822 
L 67.717362 50.735132 
L 72.798558 57.782449 
L 75.339156 60.903822 
L 77.879754 63.715377 
L 80.420352 66.237057 
L 83.807816 69.228619 
L 86.771847 71.545655 
L 89.735878 73.564833 
L 93.546775 75.798435 
L 97.357672 77.698548 
L 109.637229 82.890911 
L 116.835589 85.273307 
L 120.223053 86.174917 
L 124.880816 87.199796 
L 132.926043 88.599854 
L 142.665002 90.04666 
L 149.43993 90.879284 
L 159.178889 91.895091 
L 184.584869 93.948164 
L 232.009364 96.860584 
L 238.360859 97.193239 
L 254.451313 98.018337 
L 280.280725 99.247617 
L 286.63222 99.533844 
L 290.443117 99.70764 
L 313.731932 100.694271 
L 313.731932 100.694271 
" style="fill:none;stroke:#2ca02c;stroke-linecap:square;stroke-opacity:0.7;stroke-width:0.5;"/>
   </g>
   <g id="line2d_51">
    <path clip-path="url(#p531d085985)" d="M 60.095568 171.853627 
L 60.519001 159.327979 
L 60.942434 169.728141 
L 61.7893 179.419533 
L 62.212733 178.024696 
L 62.636166 171.921575 
L 63.059599 171.673607 
L 63.906465 173.002098 
L 64.329898 172.922235 
L 64.753331 169.881011 
L 65.176764 168.127241 
L 66.02363 169.293764 
L 66.447063 168.786579 
L 66.870496 167.038623 
L 67.293929 166.136254 
L 67.717362 165.763303 
L 68.564228 165.378212 
L 68.987661 165.29263 
L 70.681393 162.989817 
L 71.528259 162.266109 
L 72.375125 161.886914 
L 73.221991 161.54397 
L 75.339156 160.953671 
L 76.609455 160.676373 
L 77.032888 160.493954 
L 79.150053 160.284695 
L 81.690651 159.444915 
L 82.537517 159.263388 
L 84.231249 158.76783 
L 85.924981 158.429749 
L 86.771847 158.233248 
L 89.312445 157.975775 
L 89.735878 157.902421 
L 90.582744 157.904366 
L 96.934239 157.504512 
L 104.1326 157.247002 
L 105.826332 157.144152 
L 108.36693 157.108195 
L 109.637229 156.960068 
L 110.907528 156.971781 
L 112.177826 156.851119 
L 113.871558 156.80276 
L 114.718424 156.735787 
L 117.682455 156.591345 
L 118.529321 156.599006 
L 124.880816 156.465 
L 213.378312 156.202287 
L 216.342343 156.17749 
L 217.612642 156.184148 
L 221.846972 156.162088 
L 223.964137 156.163 
L 224.811003 156.160053 
L 226.504735 156.178388 
L 233.703096 156.11391 
L 235.396828 156.157441 
L 236.667127 156.083117 
L 237.937426 156.128826 
L 239.207725 156.080209 
L 272.235498 155.965934 
L 273.505797 155.950075 
L 276.046395 155.934165 
L 280.704158 155.914471 
L 289.172818 155.894793 
L 295.524313 155.843559 
L 298.064911 155.855774 
L 300.182076 155.863374 
L 304.839839 155.828868 
L 307.80387 155.853471 
L 312.461633 155.794022 
L 313.731932 155.797223 
L 313.731932 155.797223 
" style="fill:none;stroke:#1f77b4;stroke-linecap:square;stroke-width:0.5;"/>
   </g>
   <g id="line2d_52">
    <path clip-path="url(#p531d085985)" d="M 60.095568 39.871706 
L 62.212733 44.231972 
L 64.329898 47.688999 
L 66.447063 50.837375 
L 68.564228 53.871194 
L 70.681393 56.800327 
L 72.798558 59.525713 
L 74.915723 61.976469 
L 77.032888 64.278197 
L 79.150053 66.369914 
L 81.267218 68.264194 
L 83.384383 70.022291 
L 85.501548 71.576574 
L 87.618713 72.946534 
L 89.735878 74.254839 
L 91.853043 75.416202 
L 93.970208 76.52769 
L 96.087373 77.442535 
L 98.204538 78.282302 
L 100.321703 79.220083 
L 102.438868 80.085837 
L 104.556033 80.953724 
L 106.673198 81.819066 
L 108.790363 82.470407 
L 110.907528 83.215776 
L 113.024692 83.908626 
L 115.141857 84.382579 
L 117.259022 84.940625 
L 119.376187 85.455542 
L 121.493352 85.844136 
L 123.610517 86.229759 
L 125.727682 86.566356 
L 127.844847 86.78459 
L 129.962012 87.154821 
L 132.079177 87.410133 
L 134.196342 87.672299 
L 136.313507 87.950127 
L 138.430672 88.196291 
L 140.547837 88.437399 
L 142.665002 88.627528 
L 144.782167 88.766018 
L 146.899332 88.97606 
L 149.016497 89.118756 
L 151.133662 89.302976 
L 153.250827 89.488915 
L 155.367992 89.621878 
L 157.485157 89.759058 
L 159.602322 89.747227 
L 161.719487 89.909504 
L 163.836652 90.066999 
L 165.953817 90.12553 
L 168.070982 90.177379 
L 170.188147 90.239415 
L 172.305312 90.318908 
L 174.422477 90.385283 
L 176.539642 90.481282 
L 178.656807 90.511304 
L 180.773972 90.613124 
L 182.891137 90.571415 
L 185.008302 90.590282 
L 187.125466 90.660455 
L 189.242631 90.698887 
L 191.359796 90.623367 
L 193.476961 90.747894 
L 195.594126 90.707882 
L 197.711291 90.774714 
L 199.828456 90.726899 
L 201.945621 90.754134 
L 204.062786 90.74388 
L 206.179951 90.748961 
L 208.297116 90.721939 
L 210.414281 90.717104 
L 212.531446 90.737539 
L 214.648611 90.687267 
L 216.765776 90.735011 
L 218.882941 90.713602 
L 221.000106 90.69964 
L 223.117271 90.680479 
L 225.234436 90.669091 
L 227.351601 90.63842 
L 229.468766 90.602116 
L 231.585931 90.617137 
L 233.703096 90.545412 
L 235.820261 90.529661 
L 237.937426 90.505711 
L 240.054591 90.559446 
L 242.171756 90.465074 
L 244.288921 90.463449 
L 246.406086 90.36812 
L 248.523251 90.451224 
L 250.640416 90.357832 
L 252.757581 90.359627 
L 254.874746 90.290176 
L 256.991911 90.188919 
L 259.109076 90.28009 
L 261.226241 90.193168 
L 263.343405 90.240276 
L 265.46057 90.173764 
L 267.577735 90.122267 
L 269.6949 90.103557 
L 271.812065 90.097303 
L 273.92923 90.017713 
L 276.046395 89.968797 
L 278.16356 89.92412 
L 280.280725 89.885334 
L 282.39789 89.903347 
L 284.515055 89.865941 
L 286.63222 89.809675 
L 288.749385 89.77178 
L 290.86655 89.73609 
L 292.983715 89.653879 
L 295.10088 89.626654 
L 297.218045 89.640422 
L 299.33521 89.585222 
L 301.452375 89.549838 
L 303.56954 89.514594 
L 305.686705 89.394815 
L 307.80387 89.382413 
L 309.921035 89.40841 
L 312.0382 89.345622 
" style="fill:none;stroke:#d62728;stroke-linecap:square;stroke-opacity:0.7;stroke-width:0.5;"/>
   </g>
   <g id="line2d_53">
    <path clip-path="url(#p531d085985)" d="M 60.095568 32.514485 
L 60.519001 36.263672 
L 61.365867 39.167413 
L 62.636166 42.248358 
L 63.906465 44.784481 
L 65.600197 47.593581 
L 67.717362 50.810032 
L 73.221991 58.496885 
L 76.186022 62.145032 
L 79.573486 65.779068 
L 82.537517 68.546045 
L 85.924981 71.348076 
L 88.465579 73.153996 
L 92.276476 75.590291 
L 95.240507 77.222481 
L 100.745136 79.863762 
L 104.556033 81.438613 
L 111.754393 84.026843 
L 115.141857 85.080274 
L 122.763651 86.943398 
L 131.655744 88.620148 
L 144.782167 90.57977 
L 153.250827 91.551544 
L 156.638291 91.87838 
L 160.449188 92.240535 
L 165.106951 92.650577 
L 176.963075 93.582515 
L 180.350539 93.82711 
L 189.666064 94.470344 
L 201.522188 95.238867 
L 223.964137 96.549165 
L 230.315632 96.887519 
L 252.757581 98.057549 
L 257.838777 98.290416 
L 261.226241 98.456995 
L 276.469828 99.178125 
L 280.280725 99.341041 
L 286.208787 99.613588 
L 313.731932 100.769163 
L 313.731932 100.769163 
" style="fill:none;stroke:#2ca02c;stroke-linecap:square;stroke-opacity:0.7;stroke-width:0.5;"/>
   </g>
   <g id="line2d_54">
    <path clip-path="url(#p531d085985)" d="M 60.095568 171.768808 
L 60.519001 159.186285 
L 60.942434 169.566995 
L 61.7893 179.361483 
L 62.212733 176.64498 
L 62.636166 171.324486 
L 63.059599 171.818703 
L 63.906465 173.332142 
L 64.329898 172.384187 
L 64.753331 169.472214 
L 65.176764 168.330249 
L 65.600197 168.709648 
L 66.02363 168.629861 
L 66.870496 165.56929 
L 67.293929 164.995347 
L 68.140795 164.605581 
L 68.987661 164.361026 
L 70.25796 162.864826 
L 71.104826 161.700232 
L 71.951692 161.034474 
L 72.798558 160.696459 
L 74.915723 160.2901 
L 75.762589 160.140801 
L 76.609455 159.863513 
L 77.456321 159.734695 
L 79.573486 158.971817 
L 80.843785 158.64955 
L 83.807816 158.015126 
L 85.924981 157.684092 
L 86.771847 157.55 
L 87.19528 157.581736 
L 87.618713 157.475606 
L 89.312445 157.490155 
L 92.276476 157.420881 
L 93.546775 157.443411 
L 103.285734 156.826202 
L 113.448125 156.445693 
L 115.141857 156.419807 
L 116.412156 156.388107 
L 118.529321 156.357502 
L 148.169631 156.097051 
L 149.43993 156.125173 
L 151.980528 156.084986 
L 154.521126 156.073941 
L 157.485157 156.074544 
L 159.602322 156.04717 
L 168.917848 156.057113 
L 170.61158 156.027962 
L 173.575611 156.022126 
L 176.539642 155.998341 
L 181.197405 155.964619 
L 182.044271 155.956946 
L 204.909652 155.889689 
L 207.45025 155.863656 
L 209.567415 155.871212 
L 215.91891 155.857275 
L 219.729807 155.835104 
L 221.846972 155.828534 
L 224.38757 155.81732 
L 252.757581 155.70636 
L 253.604447 155.731648 
L 255.298179 155.703889 
L 257.415344 155.709239 
L 259.955942 155.688211 
L 265.46057 155.650487 
L 266.307436 155.684582 
L 267.577735 155.667562 
L 270.965199 155.645978 
L 274.352663 155.637566 
L 276.893261 155.621054 
L 305.686705 155.515066 
L 306.533571 155.549838 
L 307.380437 155.53908 
L 313.731932 155.517563 
L 313.731932 155.517563 
" style="fill:none;stroke:#1f77b4;stroke-linecap:square;stroke-width:0.5;"/>
   </g>
   <g id="line2d_55">
    <path clip-path="url(#p531d085985)" d="M 60.095568 40.203267 
L 62.212733 44.628297 
L 64.329898 48.075488 
L 66.447063 51.173689 
L 68.564228 54.183257 
L 70.681393 57.105001 
L 72.798558 59.835592 
L 74.915723 62.291174 
L 77.032888 64.563492 
L 79.150053 66.596255 
L 81.267218 68.466312 
L 83.384383 70.189683 
L 85.501548 71.760635 
L 87.618713 73.113135 
L 89.735878 74.474664 
L 91.853043 75.673484 
L 93.970208 76.727363 
L 96.087373 77.759208 
L 98.204538 78.716334 
L 100.321703 79.65301 
L 102.438868 80.407606 
L 104.556033 81.209413 
L 106.673198 81.945494 
L 108.790363 82.715588 
L 110.907528 83.342941 
L 113.024692 84.034152 
L 115.141857 84.599379 
L 117.259022 85.021909 
L 119.376187 85.562645 
L 121.493352 85.923294 
L 123.610517 86.342569 
L 125.727682 86.695863 
L 127.844847 86.959103 
L 129.962012 87.261028 
L 132.079177 87.495659 
L 134.196342 87.868526 
L 136.313507 88.129057 
L 138.430672 88.306565 
L 140.547837 88.501735 
L 142.665002 88.8071 
L 144.782167 89.00078 
L 146.899332 89.149913 
L 149.016497 89.305523 
L 151.133662 89.464972 
L 153.250827 89.575153 
L 155.367992 89.736624 
L 157.485157 89.833828 
L 159.602322 89.917442 
L 161.719487 90.069119 
L 163.836652 90.124903 
L 165.953817 90.231347 
L 168.070982 90.264365 
L 170.188147 90.342605 
L 172.305312 90.366456 
L 174.422477 90.457619 
L 176.539642 90.48651 
L 178.656807 90.534499 
L 180.773972 90.581196 
L 182.891137 90.545796 
L 185.008302 90.586726 
L 187.125466 90.653988 
L 189.242631 90.66529 
L 191.359796 90.727142 
L 193.476961 90.664738 
L 195.594126 90.77285 
L 197.711291 90.735169 
L 199.828456 90.774299 
L 201.945621 90.801356 
L 204.062786 90.766291 
L 206.179951 90.754676 
L 208.297116 90.760341 
L 210.414281 90.779853 
L 212.531446 90.732983 
L 214.648611 90.723219 
L 216.765776 90.715943 
L 218.882941 90.713041 
L 221.000106 90.681617 
L 223.117271 90.696175 
L 225.234436 90.630243 
L 227.351601 90.627189 
L 229.468766 90.679592 
L 231.585931 90.637919 
L 233.703096 90.591631 
L 235.820261 90.571772 
L 237.937426 90.63955 
L 240.054591 90.521782 
L 242.171756 90.505024 
L 244.288921 90.423759 
L 246.406086 90.405214 
L 248.523251 90.414939 
L 250.640416 90.34095 
L 252.757581 90.307546 
L 254.874746 90.339488 
L 256.991911 90.322919 
L 259.109076 90.270773 
L 261.226241 90.275136 
L 263.343405 90.194731 
L 265.46057 90.156786 
L 267.577735 90.211086 
L 269.6949 90.154206 
L 271.812065 90.11362 
L 273.92923 90.106026 
L 276.046395 90.019548 
L 278.16356 89.989282 
L 280.280725 89.92849 
L 282.39789 89.930773 
L 284.515055 89.862245 
L 286.63222 89.896661 
L 288.749385 89.889596 
L 290.86655 89.774237 
L 292.983715 89.763793 
L 295.10088 89.738237 
L 297.218045 89.741355 
L 299.33521 89.648209 
L 301.452375 89.678172 
L 303.56954 89.57173 
L 305.686705 89.538602 
L 307.80387 89.559724 
L 309.921035 89.493632 
L 312.0382 89.438731 
" style="fill:none;stroke:#d62728;stroke-linecap:square;stroke-opacity:0.7;stroke-width:0.5;"/>
   </g>
   <g id="line2d_56">
    <path clip-path="url(#p531d085985)" d="M 208.297116 186.917813 
L 208.297116 23.837813 
" style="fill:none;stroke:#808080;stroke-linecap:square;"/>
   </g>
   <g id="line2d_57">
    <path clip-path="url(#p531d085985)" style="fill:none;stroke:#2ca02c;stroke-linecap:square;stroke-width:1.5;"/>
   </g>
   <g id="line2d_58">
    <path clip-path="url(#p531d085985)" style="fill:none;stroke:#1f77b4;stroke-linecap:square;stroke-width:1.5;"/>
   </g>
   <g id="line2d_59">
    <path clip-path="url(#p531d085985)" style="fill:none;stroke:#d62728;stroke-linecap:square;stroke-width:1.5;"/>
   </g>
   <g id="patch_3">
    <path d="M 47.41375 186.917812 
L 47.41375 23.837813 
" style="fill:none;stroke:#000000;stroke-linecap:square;stroke-linejoin:miter;stroke-width:0.8;"/>
   </g>
   <g id="patch_4">
    <path d="M 47.41375 186.917813 
L 326.41375 186.917813 
" style="fill:none;stroke:#000000;stroke-linecap:square;stroke-linejoin:miter;stroke-width:0.8;"/>
   </g>
   <g id="text_14">
    <!-- Cross validation of VAE -->
    <g transform="translate(106.290156 17.837813)scale(0.14 -0.14)">
     <defs>
      <path d="M 4122 4306 
L 4122 3641 
Q 3803 3938 3442 4084 
Q 3081 4231 2675 4231 
Q 1875 4231 1450 3742 
Q 1025 3253 1025 2328 
Q 1025 1406 1450 917 
Q 1875 428 2675 428 
Q 3081 428 3442 575 
Q 3803 722 4122 1019 
L 4122 359 
Q 3791 134 3420 21 
Q 3050 -91 2638 -91 
Q 1578 -91 968 557 
Q 359 1206 359 2328 
Q 359 3453 968 4101 
Q 1578 4750 2638 4750 
Q 3056 4750 3426 4639 
Q 3797 4528 4122 4306 
z
" id="DejaVuSans-43" transform="scale(0.015625)"/>
      <path d="M 2631 2963 
Q 2534 3019 2420 3045 
Q 2306 3072 2169 3072 
Q 1681 3072 1420 2755 
Q 1159 2438 1159 1844 
L 1159 0 
L 581 0 
L 581 3500 
L 1159 3500 
L 1159 2956 
Q 1341 3275 1631 3429 
Q 1922 3584 2338 3584 
Q 2397 3584 2469 3576 
Q 2541 3569 2628 3553 
L 2631 2963 
z
" id="DejaVuSans-72" transform="scale(0.015625)"/>
      <path id="DejaVuSans-20" transform="scale(0.015625)"/>
      <path d="M 191 3500 
L 800 3500 
L 1894 563 
L 2988 3500 
L 3597 3500 
L 2284 0 
L 1503 0 
L 191 3500 
z
" id="DejaVuSans-76" transform="scale(0.015625)"/>
      <path d="M 2194 1759 
Q 1497 1759 1228 1600 
Q 959 1441 959 1056 
Q 959 750 1161 570 
Q 1363 391 1709 391 
Q 2188 391 2477 730 
Q 2766 1069 2766 1631 
L 2766 1759 
L 2194 1759 
z
M 3341 1997 
L 3341 0 
L 2766 0 
L 2766 531 
Q 2569 213 2275 61 
Q 1981 -91 1556 -91 
Q 1019 -91 701 211 
Q 384 513 384 1019 
Q 384 1609 779 1909 
Q 1175 2209 1959 2209 
L 2766 2209 
L 2766 2266 
Q 2766 2663 2505 2880 
Q 2244 3097 1772 3097 
Q 1472 3097 1187 3025 
Q 903 2953 641 2809 
L 641 3341 
Q 956 3463 1253 3523 
Q 1550 3584 1831 3584 
Q 2591 3584 2966 3190 
Q 3341 2797 3341 1997 
z
" id="DejaVuSans-61" transform="scale(0.015625)"/>
      <path d="M 603 4863 
L 1178 4863 
L 1178 0 
L 603 0 
L 603 4863 
z
" id="DejaVuSans-6c" transform="scale(0.015625)"/>
      <path d="M 603 3500 
L 1178 3500 
L 1178 0 
L 603 0 
L 603 3500 
z
M 603 4863 
L 1178 4863 
L 1178 4134 
L 603 4134 
L 603 4863 
z
" id="DejaVuSans-69" transform="scale(0.015625)"/>
      <path d="M 2906 2969 
L 2906 4863 
L 3481 4863 
L 3481 0 
L 2906 0 
L 2906 525 
Q 2725 213 2448 61 
Q 2172 -91 1784 -91 
Q 1150 -91 751 415 
Q 353 922 353 1747 
Q 353 2572 751 3078 
Q 1150 3584 1784 3584 
Q 2172 3584 2448 3432 
Q 2725 3281 2906 2969 
z
M 947 1747 
Q 947 1113 1208 752 
Q 1469 391 1925 391 
Q 2381 391 2643 752 
Q 2906 1113 2906 1747 
Q 2906 2381 2643 2742 
Q 2381 3103 1925 3103 
Q 1469 3103 1208 2742 
Q 947 2381 947 1747 
z
" id="DejaVuSans-64" transform="scale(0.015625)"/>
      <path d="M 1172 4494 
L 1172 3500 
L 2356 3500 
L 2356 3053 
L 1172 3053 
L 1172 1153 
Q 1172 725 1289 603 
Q 1406 481 1766 481 
L 2356 481 
L 2356 0 
L 1766 0 
Q 1100 0 847 248 
Q 594 497 594 1153 
L 594 3053 
L 172 3053 
L 172 3500 
L 594 3500 
L 594 4494 
L 1172 4494 
z
" id="DejaVuSans-74" transform="scale(0.015625)"/>
      <path d="M 3513 2113 
L 3513 0 
L 2938 0 
L 2938 2094 
Q 2938 2591 2744 2837 
Q 2550 3084 2163 3084 
Q 1697 3084 1428 2787 
Q 1159 2491 1159 1978 
L 1159 0 
L 581 0 
L 581 3500 
L 1159 3500 
L 1159 2956 
Q 1366 3272 1645 3428 
Q 1925 3584 2291 3584 
Q 2894 3584 3203 3211 
Q 3513 2838 3513 2113 
z
" id="DejaVuSans-6e" transform="scale(0.015625)"/>
      <path d="M 2375 4863 
L 2375 4384 
L 1825 4384 
Q 1516 4384 1395 4259 
Q 1275 4134 1275 3809 
L 1275 3500 
L 2222 3500 
L 2222 3053 
L 1275 3053 
L 1275 0 
L 697 0 
L 697 3053 
L 147 3053 
L 147 3500 
L 697 3500 
L 697 3744 
Q 697 4328 969 4595 
Q 1241 4863 1831 4863 
L 2375 4863 
z
" id="DejaVuSans-66" transform="scale(0.015625)"/>
      <path d="M 1831 0 
L 50 4666 
L 709 4666 
L 2188 738 
L 3669 4666 
L 4325 4666 
L 2547 0 
L 1831 0 
z
" id="DejaVuSans-56" transform="scale(0.015625)"/>
      <path d="M 2188 4044 
L 1331 1722 
L 3047 1722 
L 2188 4044 
z
M 1831 4666 
L 2547 4666 
L 4325 0 
L 3669 0 
L 3244 1197 
L 1141 1197 
L 716 0 
L 50 0 
L 1831 4666 
z
" id="DejaVuSans-41" transform="scale(0.015625)"/>
     </defs>
     <use xlink:href="#DejaVuSans-43"/>
     <use x="69.824219" xlink:href="#DejaVuSans-72"/>
     <use x="108.6875" xlink:href="#DejaVuSans-6f"/>
     <use x="169.869141" xlink:href="#DejaVuSans-73"/>
     <use x="221.96875" xlink:href="#DejaVuSans-73"/>
     <use x="274.068359" xlink:href="#DejaVuSans-20"/>
     <use x="305.855469" xlink:href="#DejaVuSans-76"/>
     <use x="365.035156" xlink:href="#DejaVuSans-61"/>
     <use x="426.314453" xlink:href="#DejaVuSans-6c"/>
     <use x="454.097656" xlink:href="#DejaVuSans-69"/>
     <use x="481.880859" xlink:href="#DejaVuSans-64"/>
     <use x="545.357422" xlink:href="#DejaVuSans-61"/>
     <use x="606.636719" xlink:href="#DejaVuSans-74"/>
     <use x="645.845703" xlink:href="#DejaVuSans-69"/>
     <use x="673.628906" xlink:href="#DejaVuSans-6f"/>
     <use x="734.810547" xlink:href="#DejaVuSans-6e"/>
     <use x="798.189453" xlink:href="#DejaVuSans-20"/>
     <use x="829.976562" xlink:href="#DejaVuSans-6f"/>
     <use x="891.158203" xlink:href="#DejaVuSans-66"/>
     <use x="926.363281" xlink:href="#DejaVuSans-20"/>
     <use x="958.150391" xlink:href="#DejaVuSans-56"/>
     <use x="1020.183594" xlink:href="#DejaVuSans-41"/>
     <use x="1088.591797" xlink:href="#DejaVuSans-45"/>
    </g>
   </g>
   <g id="legend_1">
    <g id="patch_5">
     <path d="M 198.37625 75.872188 
L 319.41375 75.872188 
Q 321.41375 75.872188 321.41375 73.872188 
L 321.41375 30.837813 
Q 321.41375 28.837813 319.41375 28.837813 
L 198.37625 28.837813 
Q 196.37625 28.837813 196.37625 30.837813 
L 196.37625 73.872188 
Q 196.37625 75.872188 198.37625 75.872188 
z
" style="fill:#ffffff;opacity:0.8;stroke:#cccccc;stroke-linejoin:miter;"/>
    </g>
    <g id="line2d_60">
     <path d="M 200.37625 36.93625 
L 220.37625 36.93625 
" style="fill:none;stroke:#2ca02c;stroke-linecap:square;stroke-width:1.5;"/>
    </g>
    <g id="line2d_61"/>
    <g id="text_15">
     <!-- Training MSE Loss -->
     <g transform="translate(228.37625 40.43625)scale(0.1 -0.1)">
      <defs>
       <path d="M -19 4666 
L 3928 4666 
L 3928 4134 
L 2272 4134 
L 2272 0 
L 1638 0 
L 1638 4134 
L -19 4134 
L -19 4666 
z
" id="DejaVuSans-54" transform="scale(0.015625)"/>
       <path d="M 2906 1791 
Q 2906 2416 2648 2759 
Q 2391 3103 1925 3103 
Q 1463 3103 1205 2759 
Q 947 2416 947 1791 
Q 947 1169 1205 825 
Q 1463 481 1925 481 
Q 2391 481 2648 825 
Q 2906 1169 2906 1791 
z
M 3481 434 
Q 3481 -459 3084 -895 
Q 2688 -1331 1869 -1331 
Q 1566 -1331 1297 -1286 
Q 1028 -1241 775 -1147 
L 775 -588 
Q 1028 -725 1275 -790 
Q 1522 -856 1778 -856 
Q 2344 -856 2625 -561 
Q 2906 -266 2906 331 
L 2906 616 
Q 2728 306 2450 153 
Q 2172 0 1784 0 
Q 1141 0 747 490 
Q 353 981 353 1791 
Q 353 2603 747 3093 
Q 1141 3584 1784 3584 
Q 2172 3584 2450 3431 
Q 2728 3278 2906 2969 
L 2906 3500 
L 3481 3500 
L 3481 434 
z
" id="DejaVuSans-67" transform="scale(0.015625)"/>
       <path d="M 628 4666 
L 1569 4666 
L 2759 1491 
L 3956 4666 
L 4897 4666 
L 4897 0 
L 4281 0 
L 4281 4097 
L 3078 897 
L 2444 897 
L 1241 4097 
L 1241 0 
L 628 0 
L 628 4666 
z
" id="DejaVuSans-4d" transform="scale(0.015625)"/>
       <path d="M 3425 4513 
L 3425 3897 
Q 3066 4069 2747 4153 
Q 2428 4238 2131 4238 
Q 1616 4238 1336 4038 
Q 1056 3838 1056 3469 
Q 1056 3159 1242 3001 
Q 1428 2844 1947 2747 
L 2328 2669 
Q 3034 2534 3370 2195 
Q 3706 1856 3706 1288 
Q 3706 609 3251 259 
Q 2797 -91 1919 -91 
Q 1588 -91 1214 -16 
Q 841 59 441 206 
L 441 856 
Q 825 641 1194 531 
Q 1563 422 1919 422 
Q 2459 422 2753 634 
Q 3047 847 3047 1241 
Q 3047 1584 2836 1778 
Q 2625 1972 2144 2069 
L 1759 2144 
Q 1053 2284 737 2584 
Q 422 2884 422 3419 
Q 422 4038 858 4394 
Q 1294 4750 2059 4750 
Q 2388 4750 2728 4690 
Q 3069 4631 3425 4513 
z
" id="DejaVuSans-53" transform="scale(0.015625)"/>
      </defs>
      <use xlink:href="#DejaVuSans-54"/>
      <use x="46.333984" xlink:href="#DejaVuSans-72"/>
      <use x="87.447266" xlink:href="#DejaVuSans-61"/>
      <use x="148.726562" xlink:href="#DejaVuSans-69"/>
      <use x="176.509766" xlink:href="#DejaVuSans-6e"/>
      <use x="239.888672" xlink:href="#DejaVuSans-69"/>
      <use x="267.671875" xlink:href="#DejaVuSans-6e"/>
      <use x="331.050781" xlink:href="#DejaVuSans-67"/>
      <use x="394.527344" xlink:href="#DejaVuSans-20"/>
      <use x="426.314453" xlink:href="#DejaVuSans-4d"/>
      <use x="512.59375" xlink:href="#DejaVuSans-53"/>
      <use x="576.070312" xlink:href="#DejaVuSans-45"/>
      <use x="639.253906" xlink:href="#DejaVuSans-20"/>
      <use x="671.041016" xlink:href="#DejaVuSans-4c"/>
      <use x="725.003906" xlink:href="#DejaVuSans-6f"/>
      <use x="786.185547" xlink:href="#DejaVuSans-73"/>
      <use x="838.285156" xlink:href="#DejaVuSans-73"/>
     </g>
    </g>
    <g id="line2d_62">
     <path d="M 200.37625 51.614375 
L 220.37625 51.614375 
" style="fill:none;stroke:#1f77b4;stroke-linecap:square;stroke-width:1.5;"/>
    </g>
    <g id="line2d_63"/>
    <g id="text_16">
     <!-- Training KL Loss -->
     <g transform="translate(228.37625 55.114375)scale(0.1 -0.1)">
      <defs>
       <path d="M 628 4666 
L 1259 4666 
L 1259 2694 
L 3353 4666 
L 4166 4666 
L 1850 2491 
L 4331 0 
L 3500 0 
L 1259 2247 
L 1259 0 
L 628 0 
L 628 4666 
z
" id="DejaVuSans-4b" transform="scale(0.015625)"/>
      </defs>
      <use xlink:href="#DejaVuSans-54"/>
      <use x="46.333984" xlink:href="#DejaVuSans-72"/>
      <use x="87.447266" xlink:href="#DejaVuSans-61"/>
      <use x="148.726562" xlink:href="#DejaVuSans-69"/>
      <use x="176.509766" xlink:href="#DejaVuSans-6e"/>
      <use x="239.888672" xlink:href="#DejaVuSans-69"/>
      <use x="267.671875" xlink:href="#DejaVuSans-6e"/>
      <use x="331.050781" xlink:href="#DejaVuSans-67"/>
      <use x="394.527344" xlink:href="#DejaVuSans-20"/>
      <use x="426.314453" xlink:href="#DejaVuSans-4b"/>
      <use x="491.890625" xlink:href="#DejaVuSans-4c"/>
      <use x="547.603516" xlink:href="#DejaVuSans-20"/>
      <use x="579.390625" xlink:href="#DejaVuSans-4c"/>
      <use x="633.353516" xlink:href="#DejaVuSans-6f"/>
      <use x="694.535156" xlink:href="#DejaVuSans-73"/>
      <use x="746.634766" xlink:href="#DejaVuSans-73"/>
     </g>
    </g>
    <g id="line2d_64">
     <path d="M 200.37625 66.2925 
L 220.37625 66.2925 
" style="fill:none;stroke:#d62728;stroke-linecap:square;stroke-width:1.5;"/>
    </g>
    <g id="line2d_65"/>
    <g id="text_17">
     <!-- Val MSE Loss -->
     <g transform="translate(228.37625 69.7925)scale(0.1 -0.1)">
      <use xlink:href="#DejaVuSans-56"/>
      <use x="60.658203" xlink:href="#DejaVuSans-61"/>
      <use x="121.9375" xlink:href="#DejaVuSans-6c"/>
      <use x="149.720703" xlink:href="#DejaVuSans-20"/>
      <use x="181.507812" xlink:href="#DejaVuSans-4d"/>
      <use x="267.787109" xlink:href="#DejaVuSans-53"/>
      <use x="331.263672" xlink:href="#DejaVuSans-45"/>
      <use x="394.447266" xlink:href="#DejaVuSans-20"/>
      <use x="426.234375" xlink:href="#DejaVuSans-4c"/>
      <use x="480.197266" xlink:href="#DejaVuSans-6f"/>
      <use x="541.378906" xlink:href="#DejaVuSans-73"/>
      <use x="593.478516" xlink:href="#DejaVuSans-73"/>
     </g>
    </g>
   </g>
  </g>
 </g>
 <defs>
  <clipPath id="p531d085985">
   <rect height="163.08" width="279" x="47.41375" y="23.837813"/>
  </clipPath>
 </defs>
</svg>
