<?xml version="1.0" encoding="utf-8" standalone="no"?>
<!DOCTYPE svg PUBLIC "-//W3C//DTD SVG 1.1//EN"
  "http://www.w3.org/Graphics/SVG/1.1/DTD/svg11.dtd">
<svg height="560.485pt" version="1.1" viewBox="0 0 392.9825 560.485" width="392.9825pt" xmlns="http://www.w3.org/2000/svg" xmlns:xlink="http://www.w3.org/1999/xlink">
 <metadata>
  <rdf:RDF xmlns:cc="http://creativecommons.org/ns#" xmlns:dc="http://purl.org/dc/elements/1.1/" xmlns:rdf="http://www.w3.org/1999/02/22-rdf-syntax-ns#">
   <cc:Work>
    <dc:type rdf:resource="http://purl.org/dc/dcmitype/StillImage"/>
    <dc:date>2021-12-13T15:51:25.530189</dc:date>
    <dc:format>image/svg+xml</dc:format>
    <dc:creator>
     <cc:Agent>
      <dc:title>Matplotlib v3.4.2, https://matplotlib.org/</dc:title>
     </cc:Agent>
    </dc:creator>
   </cc:Work>
  </rdf:RDF>
 </metadata>
 <defs>
  <style type="text/css">*{stroke-linecap:butt;stroke-linejoin:round;}</style>
 </defs>
 <g id="figure_1">
  <g id="patch_1">
   <path d="M 0 560.485 
L 392.9825 560.485 
L 392.9825 0 
L 0 0 
z
" style="fill:none;"/>
  </g>
  <g id="axes_1">
   <g id="line2d_1">
    <path clip-path="url(#p70626b4ab6)" d="M 66.200682 26.202208 
L 68.243391 26.454064 
L 70.2861 26.86549 
L 72.328809 27.133664 
L 74.371518 26.731617 
L 76.414227 26.901077 
L 80.499645 26.940695 
L 82.542354 26.670507 
L 84.585063 26.873201 
L 86.627772 27.29689 
L 88.67048 26.9587 
L 90.713189 26.852231 
L 94.798607 27.256026 
L 96.841316 27.154169 
L 98.884025 27.238531 
L 100.926734 26.799277 
L 102.969443 27.553716 
L 105.012152 27.620568 
L 107.054861 27.368268 
L 109.09757 28.517914 
L 115.225697 27.847397 
L 119.311115 28.615175 
L 121.353824 26.438409 
L 123.396533 26.638669 
L 125.439242 27.350403 
L 129.52466 29.595141 
L 131.567369 28.894443 
L 133.610078 27.703452 
L 135.652787 27.832192 
L 137.695496 28.56209 
L 141.780914 28.254279 
L 143.823623 28.546246 
L 145.866332 29.56925 
L 147.909041 29.464626 
L 149.95175 29.012666 
L 154.037167 27.649757 
L 156.079876 27.189496 
L 158.122585 22.957315 
L 160.165294 28.71716 
L 162.208003 27.522301 
L 164.250712 29.227085 
L 166.293421 29.355917 
L 170.378839 28.10715 
L 172.421548 26.549842 
L 174.464257 28.473691 
L 176.506966 28.288724 
L 178.549675 28.39322 
L 180.592384 28.181793 
L 184.677802 30.231865 
L 186.720511 28.72015 
L 188.76322 28.039247 
L 190.805929 27.892071 
L 192.848638 28.673339 
L 194.891347 26.040485 
L 196.934056 28.659674 
L 198.976765 30.150019 
L 201.019474 29.968939 
L 203.062183 27.853272 
L 205.104892 25.915482 
L 207.147601 26.905815 
L 209.19031 26.080949 
L 211.233019 27.983872 
L 213.275728 27.690849 
L 215.318437 28.283543 
L 217.361146 28.327405 
L 219.403854 27.966404 
L 221.446563 27.951861 
L 223.489272 27.650303 
L 225.531981 26.614024 
L 227.57469 27.526141 
L 229.617399 27.142463 
L 231.660108 26.97716 
L 233.702817 29.871091 
L 235.745526 26.55779 
L 237.788235 29.17993 
L 239.830944 30.262671 
L 241.873653 26.63147 
L 243.916362 26.272011 
L 245.959071 27.14306 
L 248.00178 29.243104 
L 250.044489 26.972894 
L 252.087198 29.328056 
L 254.129907 28.084075 
L 258.215325 27.949209 
L 260.258034 28.352684 
L 262.300743 27.922716 
L 264.343452 29.181564 
L 266.386161 28.153809 
L 268.42887 27.829769 
L 270.471579 28.033443 
L 272.514288 27.672121 
L 274.556997 28.087219 
L 276.599706 28.191108 
L 278.642415 28.505609 
L 280.685124 28.304439 
L 282.727833 28.863121 
L 284.770541 28.630371 
L 286.81325 29.177266 
L 288.855959 28.440608 
L 292.941377 29.877955 
L 294.984086 30.101084 
L 297.026795 30.031583 
L 299.069504 29.7989 
L 301.112213 28.607044 
L 303.154922 28.088327 
L 307.24034 27.586069 
L 309.283049 27.704887 
L 311.325758 28.598485 
L 313.368467 27.637615 
L 315.411176 27.661037 
L 317.453885 27.909219 
L 319.496594 28.798494 
L 321.539303 28.699586 
L 323.582012 28.194052 
L 325.624721 27.985571 
L 327.66743 28.248291 
L 329.710139 28.648881 
L 331.752848 28.785228 
L 333.795557 29.249982 
L 335.838266 28.36419 
L 337.880975 27.729069 
L 341.966393 27.822757 
L 344.009102 27.841671 
L 348.09452 28.328907 
L 350.137228 28.912407 
L 352.179937 28.750985 
L 356.265355 29.393366 
L 358.308064 28.397853 
L 360.350773 29.485853 
L 362.393482 28.703011 
L 364.436191 28.067206 
L 366.4789 28.376251 
L 368.521609 26.689622 
L 370.564318 25.878106 
L 370.564318 25.878106 
" style="fill:none;stroke:#000000;stroke-linecap:square;stroke-width:1.5;"/>
   </g>
   <g id="text_1">
    <!-- APB -->
    <g transform="translate(19.4125 36.896826)scale(0.16 -0.16)">
     <defs>
      <path d="M 2188 4044 
L 1331 1722 
L 3047 1722 
L 2188 4044 
z
M 1831 4666 
L 2547 4666 
L 4325 0 
L 3669 0 
L 3244 1197 
L 1141 1197 
L 716 0 
L 50 0 
L 1831 4666 
z
" id="DejaVuSans-41" transform="scale(0.015625)"/>
      <path d="M 1259 4147 
L 1259 2394 
L 2053 2394 
Q 2494 2394 2734 2622 
Q 2975 2850 2975 3272 
Q 2975 3691 2734 3919 
Q 2494 4147 2053 4147 
L 1259 4147 
z
M 628 4666 
L 2053 4666 
Q 2838 4666 3239 4311 
Q 3641 3956 3641 3272 
Q 3641 2581 3239 2228 
Q 2838 1875 2053 1875 
L 1259 1875 
L 1259 0 
L 628 0 
L 628 4666 
z
" id="DejaVuSans-50" transform="scale(0.015625)"/>
      <path d="M 1259 2228 
L 1259 519 
L 2272 519 
Q 2781 519 3026 730 
Q 3272 941 3272 1375 
Q 3272 1813 3026 2020 
Q 2781 2228 2272 2228 
L 1259 2228 
z
M 1259 4147 
L 1259 2741 
L 2194 2741 
Q 2656 2741 2882 2914 
Q 3109 3088 3109 3444 
Q 3109 3797 2882 3972 
Q 2656 4147 2194 4147 
L 1259 4147 
z
M 628 4666 
L 2241 4666 
Q 2963 4666 3353 4366 
Q 3744 4066 3744 3513 
Q 3744 3084 3544 2831 
Q 3344 2578 2956 2516 
Q 3422 2416 3680 2098 
Q 3938 1781 3938 1306 
Q 3938 681 3513 340 
Q 3088 0 2303 0 
L 628 0 
L 628 4666 
z
" id="DejaVuSans-42" transform="scale(0.015625)"/>
     </defs>
     <use xlink:href="#DejaVuSans-41"/>
     <use x="68.408203" xlink:href="#DejaVuSans-50"/>
     <use x="128.710938" xlink:href="#DejaVuSans-42"/>
    </g>
   </g>
  </g>
  <g id="axes_2">
   <g id="line2d_2">
    <path clip-path="url(#pb07f378da0)" d="M 66.200682 63.630291 
L 68.243391 63.680135 
L 70.2861 64.065246 
L 72.328809 64.072993 
L 74.371518 63.697269 
L 76.414227 63.952376 
L 78.456936 63.758567 
L 80.499645 63.748576 
L 82.542354 63.474935 
L 84.585063 63.7383 
L 86.627772 64.277592 
L 88.67048 63.768235 
L 90.713189 63.71918 
L 96.841316 64.076213 
L 98.884025 64.177361 
L 100.926734 63.979063 
L 102.969443 64.696615 
L 105.012152 64.504442 
L 107.054861 64.665598 
L 109.09757 61.141286 
L 111.140279 60.388891 
L 113.182988 62.617786 
L 117.268406 66.766323 
L 119.311115 67.083899 
L 121.353824 65.761746 
L 123.396533 64.692076 
L 125.439242 64.111242 
L 127.481951 65.002677 
L 129.52466 65.543162 
L 133.610078 64.122719 
L 135.652787 64.422265 
L 137.695496 65.231883 
L 139.738205 65.378405 
L 141.780914 64.965019 
L 143.823623 65.25545 
L 145.866332 66.042633 
L 147.909041 65.972182 
L 149.95175 65.355074 
L 151.994459 65.117177 
L 154.037167 66.641007 
L 156.079876 64.886433 
L 158.122585 62.169944 
L 160.165294 66.622824 
L 162.208003 63.807139 
L 164.250712 67.603372 
L 168.33613 64.774273 
L 170.378839 66.08665 
L 172.421548 64.62078 
L 174.464257 63.996066 
L 176.506966 63.744739 
L 178.549675 63.996392 
L 180.592384 64.688317 
L 182.635093 65.952741 
L 186.720511 62.500571 
L 188.76322 62.829393 
L 190.805929 64.447071 
L 192.848638 66.812681 
L 194.891347 65.597463 
L 196.934056 65.663352 
L 198.976765 67.136348 
L 201.019474 69.400074 
L 203.062183 63.889265 
L 205.104892 66.251292 
L 207.147601 65.656105 
L 209.19031 63.933302 
L 213.275728 64.146546 
L 215.318437 65.060463 
L 219.403854 65.044835 
L 221.446563 64.953618 
L 223.489272 65.204825 
L 225.531981 64.497463 
L 227.57469 63.240697 
L 229.617399 63.11806 
L 231.660108 64.512614 
L 233.702817 64.886434 
L 235.745526 66.423537 
L 237.788235 69.536698 
L 239.830944 63.81718 
L 241.873653 64.485921 
L 243.916362 63.127692 
L 245.959071 67.133364 
L 248.00178 67.044921 
L 250.044489 65.641006 
L 252.087198 65.786647 
L 254.129907 63.202331 
L 256.172616 63.608676 
L 258.215325 64.527558 
L 260.258034 65.240651 
L 262.300743 64.9279 
L 264.343452 65.391583 
L 268.42887 64.358489 
L 272.514288 64.558302 
L 274.556997 64.959074 
L 276.599706 64.97247 
L 278.642415 65.166614 
L 280.685124 65.140396 
L 282.727833 65.589214 
L 284.770541 65.081356 
L 286.81325 65.885705 
L 288.855959 65.195562 
L 290.898668 65.982467 
L 292.941377 66.498958 
L 294.984086 66.748838 
L 297.026795 66.368497 
L 299.069504 65.518431 
L 301.112213 64.495772 
L 303.154922 64.413789 
L 305.197631 64.591001 
L 309.283049 63.543181 
L 311.325758 64.43461 
L 315.411176 64.333142 
L 317.453885 64.271247 
L 319.496594 65.08625 
L 321.539303 65.012109 
L 323.582012 64.414791 
L 325.624721 64.788908 
L 329.710139 65.877578 
L 331.752848 66.153962 
L 333.795557 66.64001 
L 335.838266 65.578381 
L 337.880975 64.890219 
L 339.923684 64.483626 
L 341.966393 64.417778 
L 344.009102 64.530393 
L 346.051811 64.944816 
L 348.09452 65.081668 
L 350.137228 65.346935 
L 352.179937 64.150993 
L 354.222646 63.506525 
L 358.308064 63.579436 
L 360.350773 64.640898 
L 362.393482 64.168121 
L 364.436191 64.778517 
L 366.4789 66.516041 
L 368.521609 66.848965 
L 370.564318 67.359295 
L 370.564318 67.359295 
" style="fill:none;stroke:#000000;stroke-linecap:square;stroke-width:1.5;"/>
   </g>
   <g id="text_2">
    <!-- Lum -->
    <g transform="translate(16.6225 73.544017)scale(0.16 -0.16)">
     <defs>
      <path d="M 628 4666 
L 1259 4666 
L 1259 531 
L 3531 531 
L 3531 0 
L 628 0 
L 628 4666 
z
" id="DejaVuSans-4c" transform="scale(0.015625)"/>
      <path d="M 544 1381 
L 544 3500 
L 1119 3500 
L 1119 1403 
Q 1119 906 1312 657 
Q 1506 409 1894 409 
Q 2359 409 2629 706 
Q 2900 1003 2900 1516 
L 2900 3500 
L 3475 3500 
L 3475 0 
L 2900 0 
L 2900 538 
Q 2691 219 2414 64 
Q 2138 -91 1772 -91 
Q 1169 -91 856 284 
Q 544 659 544 1381 
z
M 1991 3584 
L 1991 3584 
z
" id="DejaVuSans-75" transform="scale(0.015625)"/>
      <path d="M 3328 2828 
Q 3544 3216 3844 3400 
Q 4144 3584 4550 3584 
Q 5097 3584 5394 3201 
Q 5691 2819 5691 2113 
L 5691 0 
L 5113 0 
L 5113 2094 
Q 5113 2597 4934 2840 
Q 4756 3084 4391 3084 
Q 3944 3084 3684 2787 
Q 3425 2491 3425 1978 
L 3425 0 
L 2847 0 
L 2847 2094 
Q 2847 2600 2669 2842 
Q 2491 3084 2119 3084 
Q 1678 3084 1418 2786 
Q 1159 2488 1159 1978 
L 1159 0 
L 581 0 
L 581 3500 
L 1159 3500 
L 1159 2956 
Q 1356 3278 1631 3431 
Q 1906 3584 2284 3584 
Q 2666 3584 2933 3390 
Q 3200 3197 3328 2828 
z
" id="DejaVuSans-6d" transform="scale(0.015625)"/>
     </defs>
     <use xlink:href="#DejaVuSans-4c"/>
     <use x="53.962891" xlink:href="#DejaVuSans-75"/>
     <use x="117.341797" xlink:href="#DejaVuSans-6d"/>
    </g>
   </g>
  </g>
  <g id="axes_3">
   <g id="line2d_3">
    <path clip-path="url(#p6b2bbcf7e9)" d="M 66.200682 100.857187 
L 68.243391 100.354017 
L 70.2861 100.309207 
L 72.328809 100.851598 
L 76.414227 100.376037 
L 78.456936 100.301533 
L 80.499645 99.607726 
L 84.585063 100.340307 
L 86.627772 101.036576 
L 88.67048 100.611032 
L 90.713189 100.898021 
L 92.755898 98.449691 
L 94.798607 97.747482 
L 96.841316 100.435369 
L 98.884025 100.46258 
L 100.926734 100.094051 
L 102.969443 100.849218 
L 105.012152 101.306345 
L 107.054861 101.104163 
L 109.09757 102.232342 
L 111.140279 102.575303 
L 113.182988 101.114828 
L 115.225697 101.608759 
L 117.268406 100.919394 
L 119.311115 104.06448 
L 121.353824 103.239624 
L 123.396533 102.782655 
L 125.439242 101.112911 
L 127.481951 100.242874 
L 129.52466 100.535409 
L 131.567369 100.220828 
L 133.610078 99.339484 
L 135.652787 99.04258 
L 137.695496 98.486404 
L 139.738205 99.431201 
L 141.780914 100.090528 
L 143.823623 99.618739 
L 145.866332 97.679496 
L 147.909041 99.682273 
L 149.95175 100.080325 
L 151.994459 95.591539 
L 154.037167 100.366676 
L 156.079876 99.814143 
L 158.122585 100.397958 
L 160.165294 101.48023 
L 162.208003 101.912889 
L 164.250712 101.467534 
L 166.293421 102.971684 
L 168.33613 101.773943 
L 170.378839 101.441336 
L 172.421548 98.016483 
L 174.464257 98.552708 
L 176.506966 97.54281 
L 178.549675 97.899651 
L 180.592384 98.627231 
L 182.635093 101.215603 
L 184.677802 98.298923 
L 186.720511 99.66473 
L 188.76322 100.739043 
L 190.805929 102.361821 
L 192.848638 105.142376 
L 194.891347 105.173253 
L 196.934056 101.186601 
L 198.976765 104.335395 
L 201.019474 103.916638 
L 203.062183 100.135844 
L 205.104892 103.042192 
L 209.19031 99.975454 
L 211.233019 99.476362 
L 213.275728 98.429072 
L 215.318437 98.294867 
L 217.361146 97.424149 
L 219.403854 96.748289 
L 221.446563 99.609959 
L 223.489272 100.096953 
L 225.531981 101.150311 
L 227.57469 101.822001 
L 229.617399 101.95573 
L 231.660108 104.454022 
L 233.702817 103.631665 
L 235.745526 101.948848 
L 239.830944 105.577126 
L 241.873653 101.024331 
L 243.916362 97.374873 
L 245.959071 97.335522 
L 248.00178 99.244972 
L 250.044489 102.053882 
L 252.087198 97.089889 
L 254.129907 96.834768 
L 256.172616 99.533063 
L 258.215325 99.500696 
L 260.258034 100.458024 
L 262.300743 94.868881 
L 264.343452 94.770265 
L 266.386161 100.217604 
L 268.42887 98.42244 
L 270.471579 100.012247 
L 274.556997 100.659049 
L 276.599706 99.166006 
L 278.642415 99.737308 
L 280.685124 100.973351 
L 282.727833 101.011116 
L 284.770541 100.230628 
L 286.81325 101.871726 
L 288.855959 102.332865 
L 290.898668 101.248044 
L 292.941377 102.441896 
L 294.984086 101.841878 
L 297.026795 100.864363 
L 299.069504 101.237066 
L 301.112213 100.185126 
L 305.197631 99.454492 
L 307.24034 101.468678 
L 311.325758 100.976709 
L 313.368467 101.411641 
L 315.411176 101.083638 
L 317.453885 101.584789 
L 319.496594 101.072196 
L 321.539303 101.817276 
L 323.582012 101.824492 
L 325.624721 101.476348 
L 327.66743 100.832113 
L 329.710139 99.141395 
L 331.752848 98.823141 
L 333.795557 100.279883 
L 335.838266 100.661717 
L 337.880975 101.201034 
L 339.923684 100.373438 
L 341.966393 100.244661 
L 344.009102 99.445733 
L 346.051811 99.209612 
L 348.09452 100.737282 
L 350.137228 101.881863 
L 352.179937 101.581587 
L 354.222646 101.033201 
L 356.265355 100.811731 
L 358.308064 100.338821 
L 360.350773 100.872768 
L 362.393482 100.061678 
L 364.436191 97.704232 
L 366.4789 102.32661 
L 368.521609 102.190111 
L 370.564318 103.199247 
L 370.564318 103.199247 
" style="fill:none;stroke:#000000;stroke-linecap:square;stroke-width:1.5;"/>
   </g>
   <g id="text_3">
    <!-- PT -->
    <g transform="translate(31.5625 110.191208)scale(0.16 -0.16)">
     <defs>
      <path d="M -19 4666 
L 3928 4666 
L 3928 4134 
L 2272 4134 
L 2272 0 
L 1638 0 
L 1638 4134 
L -19 4134 
L -19 4666 
z
" id="DejaVuSans-54" transform="scale(0.015625)"/>
     </defs>
     <use xlink:href="#DejaVuSans-50"/>
     <use x="60.302734" xlink:href="#DejaVuSans-54"/>
    </g>
   </g>
  </g>
  <g id="axes_4">
   <g id="line2d_4">
    <path clip-path="url(#pfe26045f7a)" d="M 66.200682 136.231171 
L 68.243391 137.233366 
L 70.2861 137.711212 
L 72.328809 136.589238 
L 76.414227 136.875002 
L 80.499645 136.795627 
L 84.585063 137.459111 
L 86.627772 138.218572 
L 88.67048 137.657027 
L 92.755898 137.282428 
L 94.798607 136.456783 
L 96.841316 137.625305 
L 102.969443 138.189802 
L 105.012152 138.67985 
L 107.054861 138.660126 
L 109.09757 140.037197 
L 111.140279 139.747968 
L 113.182988 138.22246 
L 115.225697 139.796176 
L 117.268406 141.735325 
L 119.311115 142.351701 
L 121.353824 141.87002 
L 123.396533 140.880957 
L 125.439242 138.781264 
L 127.481951 138.869595 
L 129.52466 138.540387 
L 131.567369 137.636784 
L 133.610078 136.373411 
L 135.652787 137.547996 
L 137.695496 137.503566 
L 139.738205 137.679219 
L 141.780914 136.883135 
L 143.823623 137.752269 
L 145.866332 137.607204 
L 147.909041 138.45456 
L 149.95175 137.286844 
L 151.994459 137.796277 
L 154.037167 143.171028 
L 156.079876 141.069163 
L 158.122585 141.913862 
L 160.165294 144.509053 
L 162.208003 142.850941 
L 164.250712 142.473462 
L 166.293421 142.717343 
L 168.33613 142.269317 
L 170.378839 142.689506 
L 172.421548 138.153375 
L 174.464257 137.007516 
L 176.506966 137.133288 
L 178.549675 135.165736 
L 180.592384 136.028327 
L 182.635093 138.250107 
L 184.677802 138.853454 
L 186.720511 138.185784 
L 188.76322 139.031433 
L 190.805929 138.780164 
L 192.848638 144.293962 
L 194.891347 146.271456 
L 196.934056 145.386251 
L 198.976765 146.028785 
L 201.019474 147.056758 
L 203.062183 144.222636 
L 205.104892 142.189555 
L 207.147601 139.683184 
L 209.19031 137.952718 
L 211.233019 135.036844 
L 213.275728 136.86962 
L 215.318437 136.903373 
L 217.361146 137.730144 
L 219.403854 138.267719 
L 221.446563 139.315898 
L 227.57469 139.891276 
L 229.617399 138.506177 
L 231.660108 143.504856 
L 233.702817 143.271965 
L 235.745526 140.95057 
L 237.788235 144.051015 
L 239.830944 143.826991 
L 243.916362 139.010579 
L 245.959071 141.031526 
L 250.044489 141.977092 
L 252.087198 139.001032 
L 254.129907 135.295615 
L 256.172616 137.014187 
L 258.215325 137.535195 
L 260.258034 137.595641 
L 262.300743 137.212202 
L 264.343452 139.203204 
L 268.42887 135.85835 
L 270.471579 137.816247 
L 272.514288 137.814619 
L 274.556997 137.990058 
L 276.599706 137.490991 
L 278.642415 137.615081 
L 282.727833 139.001289 
L 284.770541 138.058177 
L 286.81325 139.363599 
L 290.898668 139.880023 
L 292.941377 140.92421 
L 297.026795 140.65761 
L 299.069504 141.342439 
L 301.112213 140.242171 
L 303.154922 140.933225 
L 305.197631 141.098147 
L 307.24034 141.401937 
L 309.283049 140.612507 
L 311.325758 140.557019 
L 313.368467 139.857097 
L 315.411176 139.943429 
L 317.453885 140.573275 
L 319.496594 140.198067 
L 321.539303 139.950335 
L 325.624721 138.23261 
L 327.66743 138.989318 
L 329.710139 138.63616 
L 331.752848 138.883115 
L 333.795557 140.198899 
L 337.880975 138.825805 
L 339.923684 137.199958 
L 341.966393 138.098668 
L 344.009102 138.194189 
L 346.051811 137.450197 
L 348.09452 137.196329 
L 350.137228 138.749027 
L 352.179937 139.077143 
L 354.222646 138.551249 
L 356.265355 139.207445 
L 358.308064 137.549066 
L 360.350773 140.325127 
L 362.393482 137.14534 
L 364.436191 135.545373 
L 366.4789 140.431253 
L 368.521609 141.364977 
L 370.564318 144.329002 
L 370.564318 144.329002 
" style="fill:none;stroke:#000000;stroke-linecap:square;stroke-width:1.5;"/>
   </g>
   <g id="text_4">
    <!-- FDP2 -->
    <g transform="translate(9.6325 146.838399)scale(0.16 -0.16)">
     <defs>
      <path d="M 628 4666 
L 3309 4666 
L 3309 4134 
L 1259 4134 
L 1259 2759 
L 3109 2759 
L 3109 2228 
L 1259 2228 
L 1259 0 
L 628 0 
L 628 4666 
z
" id="DejaVuSans-46" transform="scale(0.015625)"/>
      <path d="M 1259 4147 
L 1259 519 
L 2022 519 
Q 2988 519 3436 956 
Q 3884 1394 3884 2338 
Q 3884 3275 3436 3711 
Q 2988 4147 2022 4147 
L 1259 4147 
z
M 628 4666 
L 1925 4666 
Q 3281 4666 3915 4102 
Q 4550 3538 4550 2338 
Q 4550 1131 3912 565 
Q 3275 0 1925 0 
L 628 0 
L 628 4666 
z
" id="DejaVuSans-44" transform="scale(0.015625)"/>
      <path d="M 1228 531 
L 3431 531 
L 3431 0 
L 469 0 
L 469 531 
Q 828 903 1448 1529 
Q 2069 2156 2228 2338 
Q 2531 2678 2651 2914 
Q 2772 3150 2772 3378 
Q 2772 3750 2511 3984 
Q 2250 4219 1831 4219 
Q 1534 4219 1204 4116 
Q 875 4013 500 3803 
L 500 4441 
Q 881 4594 1212 4672 
Q 1544 4750 1819 4750 
Q 2544 4750 2975 4387 
Q 3406 4025 3406 3419 
Q 3406 3131 3298 2873 
Q 3191 2616 2906 2266 
Q 2828 2175 2409 1742 
Q 1991 1309 1228 531 
z
" id="DejaVuSans-32" transform="scale(0.015625)"/>
     </defs>
     <use xlink:href="#DejaVuSans-46"/>
     <use x="57.519531" xlink:href="#DejaVuSans-44"/>
     <use x="134.521484" xlink:href="#DejaVuSans-50"/>
     <use x="194.824219" xlink:href="#DejaVuSans-32"/>
    </g>
   </g>
  </g>
  <g id="axes_5">
   <g id="line2d_5">
    <path clip-path="url(#p7a65c3b66b)" d="M 66.200682 174.317918 
L 68.243391 174.25745 
L 70.2861 174.482843 
L 72.328809 174.508385 
L 74.371518 174.280834 
L 76.414227 174.373421 
L 78.456936 174.219174 
L 80.499645 174.291365 
L 82.542354 174.076954 
L 84.585063 174.389919 
L 86.627772 174.981402 
L 88.67048 174.448417 
L 90.713189 174.348049 
L 92.755898 174.524868 
L 94.798607 174.821441 
L 96.841316 174.716421 
L 100.926734 174.811018 
L 102.969443 175.539493 
L 105.012152 175.474237 
L 107.054861 175.078496 
L 109.09757 176.441413 
L 111.140279 176.638191 
L 113.182988 175.611454 
L 115.225697 176.246163 
L 117.268406 179.165183 
L 121.353824 180.190409 
L 123.396533 178.61731 
L 125.439242 175.891286 
L 127.481951 176.403623 
L 129.52466 175.399979 
L 131.567369 173.712 
L 133.610078 174.441757 
L 135.652787 174.823061 
L 137.695496 175.476283 
L 139.738205 175.899465 
L 141.780914 175.812583 
L 143.823623 175.87504 
L 145.866332 176.551234 
L 147.909041 176.149881 
L 149.95175 176.137596 
L 151.994459 176.362673 
L 154.037167 181.29273 
L 156.079876 179.817357 
L 158.122585 179.877814 
L 160.165294 182.269469 
L 162.208003 180.969148 
L 164.250712 180.131962 
L 166.293421 180.579697 
L 168.33613 180.24623 
L 170.378839 180.941523 
L 172.421548 176.20994 
L 174.464257 174.451798 
L 176.506966 173.304705 
L 178.549675 173.950149 
L 180.592384 174.960215 
L 182.635093 176.50915 
L 184.677802 176.024343 
L 186.720511 174.940176 
L 188.76322 176.024714 
L 190.805929 178.166918 
L 192.848638 180.685328 
L 194.891347 180.877555 
L 196.934056 180.741615 
L 198.976765 179.453173 
L 201.019474 182.083019 
L 203.062183 179.136217 
L 205.104892 180.727713 
L 207.147601 177.658842 
L 209.19031 177.935568 
L 211.233019 174.414785 
L 213.275728 174.686221 
L 215.318437 175.479732 
L 217.361146 175.934751 
L 219.403854 176.180005 
L 221.446563 176.954436 
L 223.489272 176.564441 
L 225.531981 176.618511 
L 227.57469 176.81283 
L 229.617399 177.229123 
L 231.660108 180.822983 
L 233.702817 182.023387 
L 235.745526 179.086725 
L 237.788235 179.911167 
L 239.830944 182.167224 
L 241.873653 179.196783 
L 243.916362 177.980257 
L 245.959071 180.053804 
L 250.044489 179.42739 
L 252.087198 177.074085 
L 254.129907 174.387785 
L 256.172616 175.279273 
L 258.215325 174.907567 
L 260.258034 175.471797 
L 262.300743 175.232549 
L 264.343452 176.370707 
L 266.386161 174.676259 
L 268.42887 174.563632 
L 272.514288 174.989923 
L 274.556997 175.288932 
L 276.599706 175.123478 
L 278.642415 175.634742 
L 280.685124 175.593896 
L 282.727833 175.229217 
L 284.770541 175.487125 
L 286.81325 176.114717 
L 288.855959 175.500026 
L 290.898668 175.017819 
L 292.941377 176.096297 
L 294.984086 175.658892 
L 297.026795 177.825118 
L 299.069504 176.361915 
L 303.154922 178.678747 
L 305.197631 178.917285 
L 307.24034 177.702179 
L 311.325758 175.704755 
L 313.368467 176.23282 
L 315.411176 175.550367 
L 317.453885 176.913202 
L 321.539303 174.800387 
L 323.582012 175.014121 
L 325.624721 174.508702 
L 327.66743 174.623931 
L 329.710139 175.381408 
L 331.752848 176.332847 
L 333.795557 175.440601 
L 337.880975 175.858694 
L 339.923684 175.018066 
L 341.966393 174.902292 
L 344.009102 175.322016 
L 346.051811 175.308535 
L 348.09452 176.016976 
L 350.137228 176.150322 
L 352.179937 175.892628 
L 356.265355 176.298126 
L 358.308064 175.739537 
L 360.350773 176.872827 
L 362.393482 176.293202 
L 364.436191 176.105564 
L 366.4789 179.090447 
L 368.521609 181.146108 
L 370.564318 182.697276 
L 370.564318 182.697276 
" style="fill:none;stroke:#000000;stroke-linecap:square;stroke-width:1.5;"/>
   </g>
   <g id="text_5">
    <!-- FCR1 -->
    <g transform="translate(9.31 183.48559)scale(0.16 -0.16)">
     <defs>
      <path d="M 4122 4306 
L 4122 3641 
Q 3803 3938 3442 4084 
Q 3081 4231 2675 4231 
Q 1875 4231 1450 3742 
Q 1025 3253 1025 2328 
Q 1025 1406 1450 917 
Q 1875 428 2675 428 
Q 3081 428 3442 575 
Q 3803 722 4122 1019 
L 4122 359 
Q 3791 134 3420 21 
Q 3050 -91 2638 -91 
Q 1578 -91 968 557 
Q 359 1206 359 2328 
Q 359 3453 968 4101 
Q 1578 4750 2638 4750 
Q 3056 4750 3426 4639 
Q 3797 4528 4122 4306 
z
" id="DejaVuSans-43" transform="scale(0.015625)"/>
      <path d="M 2841 2188 
Q 3044 2119 3236 1894 
Q 3428 1669 3622 1275 
L 4263 0 
L 3584 0 
L 2988 1197 
Q 2756 1666 2539 1819 
Q 2322 1972 1947 1972 
L 1259 1972 
L 1259 0 
L 628 0 
L 628 4666 
L 2053 4666 
Q 2853 4666 3247 4331 
Q 3641 3997 3641 3322 
Q 3641 2881 3436 2590 
Q 3231 2300 2841 2188 
z
M 1259 4147 
L 1259 2491 
L 2053 2491 
Q 2509 2491 2742 2702 
Q 2975 2913 2975 3322 
Q 2975 3731 2742 3939 
Q 2509 4147 2053 4147 
L 1259 4147 
z
" id="DejaVuSans-52" transform="scale(0.015625)"/>
      <path d="M 794 531 
L 1825 531 
L 1825 4091 
L 703 3866 
L 703 4441 
L 1819 4666 
L 2450 4666 
L 2450 531 
L 3481 531 
L 3481 0 
L 794 0 
L 794 531 
z
" id="DejaVuSans-31" transform="scale(0.015625)"/>
     </defs>
     <use xlink:href="#DejaVuSans-46"/>
     <use x="57.519531" xlink:href="#DejaVuSans-43"/>
     <use x="127.34375" xlink:href="#DejaVuSans-52"/>
     <use x="196.826172" xlink:href="#DejaVuSans-31"/>
    </g>
   </g>
  </g>
  <g id="axes_6">
   <g id="line2d_6">
    <path clip-path="url(#p19d6544971)" d="M 66.200682 210.340375 
L 68.243391 210.801438 
L 70.2861 210.655058 
L 72.328809 209.644585 
L 74.371518 209.959033 
L 76.414227 209.449012 
L 78.456936 209.28221 
L 82.542354 210.052433 
L 84.585063 210.779039 
L 86.627772 211.691925 
L 88.67048 210.342809 
L 90.713189 209.207322 
L 92.755898 209.619373 
L 94.798607 209.294274 
L 96.841316 209.197539 
L 98.884025 209.42099 
L 100.926734 209.905284 
L 105.012152 211.570547 
L 107.054861 211.631478 
L 109.09757 213.40107 
L 111.140279 213.699336 
L 113.182988 212.015267 
L 115.225697 213.136386 
L 117.268406 216.665849 
L 119.311115 217.318952 
L 121.353824 218.750459 
L 123.396533 216.423432 
L 125.439242 212.633802 
L 127.481951 212.733889 
L 129.52466 213.656426 
L 131.567369 211.646728 
L 133.610078 211.424156 
L 135.652787 211.515453 
L 137.695496 212.249998 
L 139.738205 212.095259 
L 141.780914 210.650189 
L 145.866332 208.587124 
L 147.909041 211.189143 
L 149.95175 212.003442 
L 151.994459 211.532346 
L 154.037167 212.101721 
L 156.079876 214.211966 
L 158.122585 213.195318 
L 160.165294 216.543419 
L 162.208003 215.11955 
L 164.250712 216.497864 
L 166.293421 215.766164 
L 168.33613 213.411337 
L 170.378839 219.079904 
L 172.421548 212.393007 
L 174.464257 211.418289 
L 178.549675 211.762563 
L 180.592384 211.866739 
L 182.635093 212.98586 
L 184.677802 214.811555 
L 186.720511 213.860345 
L 188.76322 210.928197 
L 190.805929 208.522234 
L 192.848638 209.551448 
L 194.891347 208.292136 
L 196.934056 211.811605 
L 198.976765 206.209445 
L 201.019474 208.113944 
L 203.062183 211.904344 
L 205.104892 208.868273 
L 207.147601 204.791048 
L 209.19031 210.155831 
L 211.233019 205.339789 
L 213.275728 211.844681 
L 215.318437 211.514083 
L 217.361146 212.155883 
L 219.403854 212.604207 
L 221.446563 213.593967 
L 223.489272 212.600477 
L 225.531981 212.262092 
L 227.57469 214.281964 
L 229.617399 213.850037 
L 231.660108 218.868849 
L 233.702817 214.903049 
L 235.745526 208.850391 
L 239.830944 214.234356 
L 241.873653 208.617576 
L 243.916362 207.318637 
L 245.959071 212.289787 
L 248.00178 213.068584 
L 250.044489 211.248303 
L 252.087198 209.818387 
L 254.129907 209.157206 
L 256.172616 209.164467 
L 258.215325 210.22515 
L 260.258034 209.426606 
L 262.300743 209.468004 
L 264.343452 203.201382 
L 266.386161 208.327514 
L 268.42887 211.381387 
L 270.471579 210.961277 
L 272.514288 210.844934 
L 274.556997 211.719078 
L 276.599706 211.092176 
L 278.642415 211.817551 
L 280.685124 212.317243 
L 282.727833 212.70135 
L 284.770541 212.795599 
L 286.81325 213.379823 
L 288.855959 213.101987 
L 290.898668 213.71309 
L 292.941377 214.613188 
L 294.984086 214.974834 
L 297.026795 215.846 
L 299.069504 215.558608 
L 301.112213 214.884754 
L 303.154922 216.067717 
L 305.197631 216.385241 
L 307.24034 215.597795 
L 309.283049 214.304947 
L 311.325758 214.269298 
L 313.368467 213.606063 
L 315.411176 213.344296 
L 317.453885 213.563674 
L 319.496594 212.991549 
L 321.539303 212.796106 
L 323.582012 212.223972 
L 325.624721 212.094277 
L 331.752848 213.912227 
L 333.795557 214.944198 
L 335.838266 213.124367 
L 337.880975 211.982743 
L 339.923684 209.663742 
L 341.966393 210.098405 
L 348.09452 212.747792 
L 350.137228 212.638226 
L 352.179937 211.925151 
L 354.222646 212.74915 
L 356.265355 212.131772 
L 358.308064 210.851547 
L 360.350773 213.09466 
L 362.393482 206.663333 
L 364.436191 205.411474 
L 368.521609 213.797114 
L 370.564318 216.793094 
L 370.564318 216.793094 
" style="fill:none;stroke:#000000;stroke-linecap:square;stroke-width:1.5;"/>
   </g>
   <g id="text_6">
    <!-- FCU1 -->
    <g transform="translate(8.7175 220.132781)scale(0.16 -0.16)">
     <defs>
      <path d="M 556 4666 
L 1191 4666 
L 1191 1831 
Q 1191 1081 1462 751 
Q 1734 422 2344 422 
Q 2950 422 3222 751 
Q 3494 1081 3494 1831 
L 3494 4666 
L 4128 4666 
L 4128 1753 
Q 4128 841 3676 375 
Q 3225 -91 2344 -91 
Q 1459 -91 1007 375 
Q 556 841 556 1753 
L 556 4666 
z
" id="DejaVuSans-55" transform="scale(0.015625)"/>
     </defs>
     <use xlink:href="#DejaVuSans-46"/>
     <use x="57.519531" xlink:href="#DejaVuSans-43"/>
     <use x="127.34375" xlink:href="#DejaVuSans-55"/>
     <use x="200.537109" xlink:href="#DejaVuSans-31"/>
    </g>
   </g>
  </g>
  <g id="axes_7">
   <g id="line2d_7">
    <path clip-path="url(#p2f669f8795)" d="M 66.200682 246.760979 
L 70.2861 245.826305 
L 72.328809 246.361665 
L 74.371518 246.707156 
L 76.414227 246.540778 
L 78.456936 246.896639 
L 82.542354 247.270914 
L 84.585063 246.896617 
L 86.627772 245.960874 
L 88.67048 246.69687 
L 94.798607 247.055716 
L 96.841316 246.467397 
L 98.884025 246.291475 
L 100.926734 246.500122 
L 102.969443 246.114527 
L 105.012152 245.44904 
L 107.054861 245.312513 
L 109.09757 245.34167 
L 111.140279 245.055881 
L 113.182988 246.459173 
L 115.225697 243.738975 
L 117.268406 240.227613 
L 119.311115 239.816231 
L 121.353824 242.707708 
L 123.396533 242.735254 
L 125.439242 246.002217 
L 127.481951 248.401746 
L 129.52466 244.97441 
L 131.567369 244.557513 
L 133.610078 246.401331 
L 135.652787 246.18024 
L 137.695496 246.286308 
L 139.738205 246.262834 
L 145.866332 246.864515 
L 147.909041 245.872283 
L 149.95175 246.9953 
L 151.994459 248.257171 
L 154.037167 241.560641 
L 156.079876 243.704597 
L 158.122585 242.560871 
L 160.165294 240.942983 
L 162.208003 241.834216 
L 164.250712 240.826851 
L 166.293421 236.43342 
L 168.33613 237.006309 
L 170.378839 236.943543 
L 172.421548 246.660225 
L 174.464257 246.117004 
L 176.506966 243.248607 
L 178.549675 245.39492 
L 180.592384 246.608771 
L 182.635093 248.601173 
L 184.677802 244.902696 
L 186.720511 244.443928 
L 188.76322 248.207284 
L 190.805929 246.583222 
L 192.848638 238.02904 
L 194.891347 242.117315 
L 196.934056 237.041826 
L 198.976765 241.818718 
L 201.019474 240.386192 
L 203.062183 235.548173 
L 205.104892 238.645962 
L 207.147601 242.230077 
L 209.19031 243.847664 
L 211.233019 244.760343 
L 213.275728 246.995874 
L 215.318437 247.974586 
L 217.361146 247.616643 
L 219.403854 247.489891 
L 221.446563 248.168709 
L 223.489272 247.844256 
L 225.531981 248.165467 
L 229.617399 247.652144 
L 231.660108 240.299167 
L 233.702817 235.407301 
L 235.745526 244.074968 
L 237.788235 239.519045 
L 239.830944 240.726341 
L 241.873653 246.221807 
L 243.916362 246.239443 
L 245.959071 241.142735 
L 248.00178 240.794347 
L 250.044489 240.712567 
L 254.129907 246.117842 
L 256.172616 246.350623 
L 258.215325 247.394505 
L 260.258034 247.508988 
L 262.300743 247.049223 
L 264.343452 247.90918 
L 266.386161 246.721164 
L 268.42887 247.260582 
L 270.471579 247.176931 
L 272.514288 246.836177 
L 274.556997 247.286459 
L 276.599706 247.277334 
L 278.642415 246.828808 
L 282.727833 247.311065 
L 284.770541 246.86747 
L 286.81325 246.02494 
L 288.855959 247.065227 
L 290.898668 244.528865 
L 292.941377 244.952833 
L 294.984086 242.321402 
L 297.026795 240.690338 
L 299.069504 243.454654 
L 301.112213 243.415895 
L 303.154922 239.708772 
L 305.197631 239.260124 
L 307.24034 243.883537 
L 309.283049 243.733 
L 311.325758 244.99367 
L 313.368467 243.772561 
L 315.411176 245.082645 
L 317.453885 245.410786 
L 319.496594 244.379229 
L 321.539303 245.966194 
L 323.582012 246.192074 
L 325.624721 245.678772 
L 327.66743 242.985114 
L 329.710139 236.698384 
L 331.752848 239.53205 
L 333.795557 237.67606 
L 335.838266 243.399994 
L 337.880975 244.827954 
L 339.923684 244.801262 
L 341.966393 246.046859 
L 344.009102 246.073305 
L 346.051811 246.913479 
L 348.09452 247.05656 
L 354.222646 248.091946 
L 356.265355 247.431218 
L 358.308064 247.036605 
L 362.393482 247.934729 
L 364.436191 247.693659 
L 366.4789 240.772445 
L 368.521609 240.300272 
L 370.564318 238.909902 
L 370.564318 238.909902 
" style="fill:none;stroke:#000000;stroke-linecap:square;stroke-width:1.5;"/>
   </g>
   <g id="text_7">
    <!-- FCUR -->
    <g transform="translate(7.78 256.779972)scale(0.16 -0.16)">
     <use xlink:href="#DejaVuSans-46"/>
     <use x="57.519531" xlink:href="#DejaVuSans-43"/>
     <use x="127.34375" xlink:href="#DejaVuSans-55"/>
     <use x="200.537109" xlink:href="#DejaVuSans-52"/>
    </g>
   </g>
  </g>
  <g id="axes_8">
   <g id="line2d_8">
    <path clip-path="url(#pba57657634)" d="M 66.200682 283.054652 
L 68.243391 283.083504 
L 72.328809 280.915949 
L 74.371518 283.439433 
L 76.414227 282.904242 
L 78.456936 283.36366 
L 80.499645 283.339203 
L 82.542354 283.454085 
L 84.585063 283.167142 
L 86.627772 282.226323 
L 88.67048 282.938152 
L 90.713189 283.108899 
L 94.798607 283.315019 
L 96.841316 282.731856 
L 98.884025 282.600532 
L 100.926734 282.079202 
L 102.969443 281.705575 
L 105.012152 281.626518 
L 107.054861 281.676787 
L 109.09757 280.287802 
L 111.140279 277.343951 
L 113.182988 280.666446 
L 115.225697 279.244166 
L 117.268406 276.893041 
L 119.311115 276.887851 
L 121.353824 279.460121 
L 123.396533 278.799865 
L 125.439242 280.693029 
L 127.481951 283.44975 
L 129.52466 284.058029 
L 131.567369 282.97992 
L 135.652787 282.324601 
L 137.695496 282.824002 
L 139.738205 282.559987 
L 141.780914 283.010166 
L 143.823623 283.117334 
L 145.866332 283.875629 
L 147.909041 284.009038 
L 149.95175 283.144523 
L 151.994459 284.040255 
L 154.037167 278.404453 
L 156.079876 280.472456 
L 158.122585 276.774435 
L 160.165294 274.76484 
L 162.208003 276.215931 
L 164.250712 276.169336 
L 166.293421 276.254237 
L 168.33613 278.58239 
L 170.378839 274.997367 
L 172.421548 279.254754 
L 174.464257 281.975623 
L 176.506966 283.837562 
L 178.549675 283.217134 
L 180.592384 283.705249 
L 182.635093 283.880964 
L 186.720511 281.259229 
L 188.76322 281.751627 
L 190.805929 277.657314 
L 192.848638 272.323903 
L 194.891347 271.980341 
L 196.934056 278.910874 
L 198.976765 275.49525 
L 201.019474 272.575434 
L 203.062183 283.488597 
L 205.104892 278.411866 
L 207.147601 277.851061 
L 209.19031 280.689942 
L 211.233019 281.047654 
L 213.275728 282.892805 
L 215.318437 283.867117 
L 217.361146 283.259665 
L 219.403854 281.815004 
L 221.446563 280.920806 
L 223.489272 282.348977 
L 225.531981 282.265933 
L 229.617399 279.346042 
L 231.660108 276.184986 
L 233.702817 276.573557 
L 235.745526 274.838772 
L 237.788235 278.254228 
L 239.830944 271.467888 
L 241.873653 275.787889 
L 243.916362 278.786497 
L 245.959071 277.888437 
L 248.00178 279.063922 
L 250.044489 277.814566 
L 254.129907 283.735922 
L 256.172616 282.061579 
L 258.215325 283.83137 
L 260.258034 283.619002 
L 262.300743 282.951265 
L 264.343452 282.488657 
L 266.386161 283.910551 
L 268.42887 283.553123 
L 270.471579 283.753079 
L 272.514288 283.254452 
L 274.556997 283.847463 
L 276.599706 283.804259 
L 278.642415 282.969283 
L 280.685124 282.907027 
L 282.727833 283.546183 
L 284.770541 283.346722 
L 286.81325 282.907135 
L 288.855959 283.235411 
L 290.898668 282.82818 
L 292.941377 281.856365 
L 294.984086 283.159044 
L 299.069504 279.715769 
L 301.112213 279.226556 
L 303.154922 275.833968 
L 307.24034 278.218708 
L 309.283049 278.773657 
L 311.325758 280.241877 
L 313.368467 278.616435 
L 315.411176 281.256265 
L 317.453885 280.427221 
L 319.496594 281.832621 
L 321.539303 282.571056 
L 323.582012 281.719234 
L 325.624721 282.202984 
L 327.66743 282.206261 
L 329.710139 282.424525 
L 331.752848 281.967061 
L 333.795557 280.828368 
L 335.838266 281.715521 
L 337.880975 281.559628 
L 339.923684 282.342126 
L 341.966393 282.996554 
L 344.009102 282.495802 
L 346.051811 283.364962 
L 348.09452 283.595254 
L 350.137228 284.236644 
L 352.179937 283.324934 
L 354.222646 283.347102 
L 356.265355 282.664918 
L 362.393482 282.651657 
L 364.436191 282.345561 
L 366.4789 278.148553 
L 368.521609 273.247314 
L 370.564318 274.486165 
L 370.564318 274.486165 
" style="fill:none;stroke:#000000;stroke-linecap:square;stroke-width:1.5;"/>
   </g>
   <g id="text_8">
    <!-- FPB -->
    <g transform="translate(21.155 293.427163)scale(0.16 -0.16)">
     <use xlink:href="#DejaVuSans-46"/>
     <use x="57.519531" xlink:href="#DejaVuSans-50"/>
     <use x="117.822266" xlink:href="#DejaVuSans-42"/>
    </g>
   </g>
  </g>
  <g id="axes_9">
   <g id="line2d_9">
    <path clip-path="url(#p19e4e3fae2)" d="M 66.200682 320.036626 
L 68.243391 320.19344 
L 70.2861 320.69827 
L 72.328809 320.810286 
L 74.371518 320.368897 
L 76.414227 320.632354 
L 78.456936 320.335321 
L 80.499645 320.399182 
L 82.542354 320.160697 
L 84.585063 320.458811 
L 86.627772 321.175848 
L 88.67048 320.548837 
L 90.713189 320.430214 
L 94.798607 320.922188 
L 96.841316 320.72066 
L 98.884025 320.861306 
L 100.926734 320.56326 
L 102.969443 321.242182 
L 105.012152 321.326317 
L 107.054861 320.975387 
L 109.09757 322.310686 
L 111.140279 322.476576 
L 113.182988 321.497457 
L 115.225697 322.05185 
L 117.268406 323.727369 
L 119.311115 324.093294 
L 121.353824 323.262968 
L 123.396533 322.812013 
L 125.439242 321.930643 
L 127.481951 322.092598 
L 129.52466 323.275726 
L 133.610078 321.116375 
L 135.652787 321.18024 
L 137.695496 321.875135 
L 139.738205 321.781213 
L 141.780914 322.126512 
L 147.909041 322.40543 
L 149.95175 322.278875 
L 151.994459 322.394505 
L 154.037167 325.950117 
L 156.079876 323.347097 
L 158.122585 324.939637 
L 160.165294 324.574713 
L 162.208003 324.772812 
L 164.250712 323.517048 
L 166.293421 324.725071 
L 168.33613 323.219295 
L 170.378839 324.954236 
L 172.421548 321.318586 
L 174.464257 321.106495 
L 176.506966 320.453531 
L 178.549675 320.567327 
L 180.592384 321.805686 
L 182.635093 322.229384 
L 184.677802 323.191201 
L 186.720511 320.214321 
L 188.76322 318.42886 
L 190.805929 320.638548 
L 192.848638 324.752958 
L 194.891347 322.783796 
L 196.934056 325.768046 
L 198.976765 326.319664 
L 203.062183 326.683123 
L 205.104892 325.606092 
L 207.147601 322.95095 
L 209.19031 322.065283 
L 211.233019 320.771767 
L 213.275728 320.425234 
L 215.318437 321.480104 
L 217.361146 321.238877 
L 219.403854 321.263706 
L 221.446563 320.263951 
L 223.489272 320.516 
L 225.531981 322.222206 
L 227.57469 322.434086 
L 229.617399 322.415639 
L 231.660108 326.342496 
L 233.702817 325.825185 
L 235.745526 322.237959 
L 237.788235 324.384082 
L 239.830944 324.873091 
L 241.873653 322.809701 
L 243.916362 322.639833 
L 245.959071 323.666864 
L 250.044489 324.419999 
L 252.087198 323.25137 
L 254.129907 321.138497 
L 256.172616 319.688419 
L 258.215325 320.67865 
L 260.258034 320.702823 
L 262.300743 321.543945 
L 264.343452 323.008083 
L 266.386161 321.738788 
L 268.42887 321.349107 
L 270.471579 321.577309 
L 272.514288 321.380334 
L 274.556997 321.715875 
L 276.599706 321.755332 
L 278.642415 322.158605 
L 280.685124 321.482629 
L 282.727833 322.26683 
L 284.770541 322.465596 
L 286.81325 323.037674 
L 288.855959 322.577552 
L 290.898668 323.315435 
L 294.984086 324.5079 
L 297.026795 324.219731 
L 299.069504 323.309737 
L 301.112213 322.942495 
L 303.154922 322.745588 
L 305.197631 321.794769 
L 307.24034 322.349618 
L 309.283049 321.206891 
L 311.325758 321.926278 
L 315.411176 321.322969 
L 317.453885 321.670296 
L 319.496594 322.153177 
L 321.539303 322.061086 
L 323.582012 321.570697 
L 327.66743 322.34462 
L 329.710139 321.916964 
L 331.752848 322.563952 
L 333.795557 323.664188 
L 335.838266 322.547268 
L 337.880975 321.587932 
L 339.923684 321.727574 
L 341.966393 321.504415 
L 346.051811 321.726162 
L 348.09452 322.381784 
L 350.137228 322.729233 
L 352.179937 322.294997 
L 356.265355 322.469038 
L 358.308064 321.692059 
L 360.350773 322.678778 
L 362.393482 321.570742 
L 364.436191 320.857064 
L 366.4789 323.925366 
L 368.521609 324.970502 
L 370.564318 326.236876 
L 370.564318 326.236876 
" style="fill:none;stroke:#000000;stroke-linecap:square;stroke-width:1.5;"/>
   </g>
   <g id="text_9">
    <!-- 3DI -->
    <g transform="translate(23.7625 330.074354)scale(0.16 -0.16)">
     <defs>
      <path d="M 2597 2516 
Q 3050 2419 3304 2112 
Q 3559 1806 3559 1356 
Q 3559 666 3084 287 
Q 2609 -91 1734 -91 
Q 1441 -91 1130 -33 
Q 819 25 488 141 
L 488 750 
Q 750 597 1062 519 
Q 1375 441 1716 441 
Q 2309 441 2620 675 
Q 2931 909 2931 1356 
Q 2931 1769 2642 2001 
Q 2353 2234 1838 2234 
L 1294 2234 
L 1294 2753 
L 1863 2753 
Q 2328 2753 2575 2939 
Q 2822 3125 2822 3475 
Q 2822 3834 2567 4026 
Q 2313 4219 1838 4219 
Q 1578 4219 1281 4162 
Q 984 4106 628 3988 
L 628 4550 
Q 988 4650 1302 4700 
Q 1616 4750 1894 4750 
Q 2613 4750 3031 4423 
Q 3450 4097 3450 3541 
Q 3450 3153 3228 2886 
Q 3006 2619 2597 2516 
z
" id="DejaVuSans-33" transform="scale(0.015625)"/>
      <path d="M 628 4666 
L 1259 4666 
L 1259 0 
L 628 0 
L 628 4666 
z
" id="DejaVuSans-49" transform="scale(0.015625)"/>
     </defs>
     <use xlink:href="#DejaVuSans-33"/>
     <use x="63.623047" xlink:href="#DejaVuSans-44"/>
     <use x="140.625" xlink:href="#DejaVuSans-49"/>
    </g>
   </g>
  </g>
  <g id="axes_10">
   <g id="line2d_10">
    <path clip-path="url(#p679f314bae)" d="M 66.200682 357.88434 
L 72.328809 357.691595 
L 74.371518 357.36408 
L 76.414227 357.565832 
L 78.456936 357.280806 
L 80.499645 357.478208 
L 82.542354 357.267677 
L 84.585063 357.351043 
L 86.627772 357.600188 
L 88.67048 357.082347 
L 90.713189 357.063353 
L 94.798607 357.802763 
L 98.884025 358.221456 
L 100.926734 358.16934 
L 102.969443 358.799729 
L 105.012152 358.68897 
L 107.054861 358.356426 
L 109.09757 356.514092 
L 111.140279 356.331267 
L 113.182988 356.426564 
L 115.225697 358.528461 
L 117.268406 356.88295 
L 119.311115 357.820473 
L 121.353824 359.245915 
L 123.396533 359.055355 
L 125.439242 358.683787 
L 127.481951 358.467363 
L 129.52466 359.888414 
L 131.567369 357.741922 
L 133.610078 357.799517 
L 135.652787 358.063079 
L 137.695496 357.452626 
L 139.738205 357.635803 
L 141.780914 358.13257 
L 145.866332 352.047476 
L 147.909041 352.735905 
L 149.95175 353.260433 
L 151.994459 355.377965 
L 154.037167 361.903295 
L 156.079876 360.801446 
L 158.122585 360.00565 
L 160.165294 362.145723 
L 162.208003 361.490501 
L 164.250712 359.915489 
L 166.293421 361.772363 
L 168.33613 360.245818 
L 170.378839 360.431367 
L 172.421548 356.535844 
L 174.464257 356.538173 
L 176.506966 358.303322 
L 178.549675 357.975823 
L 180.592384 356.068413 
L 182.635093 348.894815 
L 184.677802 349.644826 
L 186.720511 353.394914 
L 188.76322 353.369945 
L 192.848638 362.510501 
L 194.891347 362.444978 
L 196.934056 360.262633 
L 198.976765 361.760953 
L 201.019474 364.331072 
L 203.062183 362.875843 
L 205.104892 363.928242 
L 207.147601 362.644579 
L 209.19031 357.634227 
L 211.233019 358.507379 
L 215.318437 354.714434 
L 217.361146 353.799377 
L 219.403854 352.229879 
L 221.446563 353.681771 
L 223.489272 352.091704 
L 225.531981 348.585576 
L 227.57469 352.540612 
L 229.617399 355.088836 
L 233.702817 363.260986 
L 235.745526 358.828526 
L 237.788235 359.611985 
L 239.830944 363.410963 
L 241.873653 360.888402 
L 243.916362 359.672775 
L 245.959071 360.35807 
L 248.00178 360.35554 
L 250.044489 361.32289 
L 252.087198 360.046983 
L 254.129907 357.934521 
L 256.172616 357.975505 
L 258.215325 357.610922 
L 260.258034 358.291787 
L 262.300743 357.860922 
L 264.343452 356.676186 
L 266.386161 355.240942 
L 268.42887 356.762737 
L 270.471579 354.398626 
L 272.514288 354.691372 
L 274.556997 352.945333 
L 276.599706 353.865166 
L 278.642415 352.39787 
L 280.685124 352.783921 
L 282.727833 350.779508 
L 284.770541 351.207042 
L 286.81325 348.871966 
L 288.855959 350.186093 
L 290.898668 349.83921 
L 292.941377 349.804784 
L 294.984086 350.990175 
L 297.026795 350.88815 
L 299.069504 348.56024 
L 301.112213 355.17932 
L 303.154922 354.297816 
L 305.197631 354.293255 
L 307.24034 357.704073 
L 309.283049 354.960706 
L 311.325758 356.796876 
L 313.368467 356.766755 
L 315.411176 354.735676 
L 317.453885 354.43414 
L 319.496594 353.527289 
L 321.539303 356.06247 
L 323.582012 356.581703 
L 325.624721 354.85219 
L 327.66743 356.081352 
L 329.710139 357.486021 
L 331.752848 354.482325 
L 333.795557 354.195641 
L 335.838266 354.369718 
L 337.880975 355.23365 
L 339.923684 358.164373 
L 341.966393 356.770231 
L 344.009102 356.035116 
L 346.051811 353.719411 
L 348.09452 352.716654 
L 350.137228 352.409104 
L 352.179937 351.547917 
L 354.222646 350.490618 
L 356.265355 353.201129 
L 358.308064 354.042256 
L 360.350773 355.973604 
L 362.393482 358.512241 
L 364.436191 358.254663 
L 366.4789 360.995441 
L 368.521609 361.994109 
L 370.564318 361.826927 
L 370.564318 361.826927 
" style="fill:none;stroke:#000000;stroke-linecap:square;stroke-width:1.5;"/>
   </g>
   <g id="text_10">
    <!-- SUP -->
    <g transform="translate(19.4675 366.721545)scale(0.16 -0.16)">
     <defs>
      <path d="M 3425 4513 
L 3425 3897 
Q 3066 4069 2747 4153 
Q 2428 4238 2131 4238 
Q 1616 4238 1336 4038 
Q 1056 3838 1056 3469 
Q 1056 3159 1242 3001 
Q 1428 2844 1947 2747 
L 2328 2669 
Q 3034 2534 3370 2195 
Q 3706 1856 3706 1288 
Q 3706 609 3251 259 
Q 2797 -91 1919 -91 
Q 1588 -91 1214 -16 
Q 841 59 441 206 
L 441 856 
Q 825 641 1194 531 
Q 1563 422 1919 422 
Q 2459 422 2753 634 
Q 3047 847 3047 1241 
Q 3047 1584 2836 1778 
Q 2625 1972 2144 2069 
L 1759 2144 
Q 1053 2284 737 2584 
Q 422 2884 422 3419 
Q 422 4038 858 4394 
Q 1294 4750 2059 4750 
Q 2388 4750 2728 4690 
Q 3069 4631 3425 4513 
z
" id="DejaVuSans-53" transform="scale(0.015625)"/>
     </defs>
     <use xlink:href="#DejaVuSans-53"/>
     <use x="63.476562" xlink:href="#DejaVuSans-55"/>
     <use x="136.669922" xlink:href="#DejaVuSans-50"/>
    </g>
   </g>
  </g>
  <g id="axes_11">
   <g id="line2d_11">
    <path clip-path="url(#pf08ab2c640)" d="M 66.200682 394.613212 
L 68.243391 394.316801 
L 70.2861 393.456483 
L 72.328809 394.53339 
L 74.371518 394.002891 
L 76.414227 394.148753 
L 78.456936 394.103622 
L 80.499645 394.180412 
L 82.542354 393.910249 
L 84.585063 393.886968 
L 86.627772 394.356681 
L 88.67048 393.919352 
L 90.713189 393.820782 
L 94.798607 394.479091 
L 98.884025 394.645412 
L 100.926734 395.200874 
L 102.969443 391.655913 
L 105.012152 393.743522 
L 107.054861 395.424226 
L 109.09757 394.525281 
L 111.140279 395.172317 
L 113.182988 393.99261 
L 115.225697 395.465608 
L 117.268406 397.237673 
L 119.311115 397.964098 
L 121.353824 389.585385 
L 123.396533 387.149517 
L 125.439242 385.613972 
L 127.481951 375.740184 
L 129.52466 369.338353 
L 131.567369 385.059425 
L 133.610078 395.269332 
L 135.652787 394.078739 
L 137.695496 395.206015 
L 139.738205 395.270109 
L 143.823623 394.842579 
L 145.866332 394.219096 
L 147.909041 394.146159 
L 149.95175 394.685626 
L 151.994459 389.257574 
L 154.037167 388.613865 
L 156.079876 383.882922 
L 158.122585 393.127313 
L 160.165294 387.006551 
L 162.208003 392.057356 
L 164.250712 392.708475 
L 166.293421 388.408219 
L 168.33613 393.502175 
L 170.378839 384.423484 
L 172.421548 391.690097 
L 174.464257 394.620241 
L 176.506966 394.981546 
L 178.549675 395.122981 
L 180.592384 394.455832 
L 182.635093 392.587781 
L 184.677802 391.746874 
L 186.720511 393.705663 
L 188.76322 394.130459 
L 190.805929 388.253332 
L 192.848638 387.596742 
L 194.891347 384.685476 
L 196.934056 392.584515 
L 198.976765 385.366754 
L 201.019474 385.132858 
L 203.062183 381.0377 
L 205.104892 381.718105 
L 207.147601 389.748842 
L 209.19031 393.137239 
L 211.233019 395.435819 
L 213.275728 394.173076 
L 215.318437 391.514407 
L 217.361146 392.33793 
L 219.403854 394.590462 
L 221.446563 393.180516 
L 223.489272 392.868074 
L 225.531981 392.727563 
L 227.57469 384.359057 
L 229.617399 384.126912 
L 231.660108 385.971764 
L 233.702817 384.237756 
L 235.745526 393.937064 
L 237.788235 389.541073 
L 239.830944 386.211078 
L 241.873653 385.773645 
L 243.916362 389.621875 
L 245.959071 395.364154 
L 248.00178 380.895169 
L 250.044489 384.615653 
L 252.087198 393.156528 
L 256.172616 396.141362 
L 258.215325 388.028753 
L 260.258034 383.996429 
L 262.300743 393.940932 
L 264.343452 394.210302 
L 266.386161 394.819936 
L 268.42887 394.097413 
L 270.471579 394.217337 
L 272.514288 393.985967 
L 274.556997 394.13467 
L 276.599706 394.431138 
L 278.642415 394.561691 
L 280.685124 393.718409 
L 282.727833 394.101668 
L 284.770541 393.93413 
L 286.81325 391.88411 
L 288.855959 391.955817 
L 290.898668 393.673804 
L 292.941377 389.270927 
L 294.984086 389.832152 
L 297.026795 384.81427 
L 299.069504 391.939246 
L 301.112213 388.829632 
L 303.154922 389.231861 
L 305.197631 387.671557 
L 307.24034 377.024993 
L 309.283049 389.078629 
L 311.325758 380.73289 
L 313.368467 386.203589 
L 315.411176 393.749776 
L 317.453885 388.251856 
L 319.496594 389.239826 
L 321.539303 386.386792 
L 323.582012 387.347774 
L 325.624721 395.21055 
L 327.66743 395.235371 
L 329.710139 395.595348 
L 331.752848 393.647968 
L 333.795557 395.614333 
L 335.838266 393.613045 
L 337.880975 394.813436 
L 339.923684 394.603842 
L 341.966393 394.188617 
L 344.009102 394.11318 
L 346.051811 394.616002 
L 348.09452 393.099371 
L 350.137228 390.243147 
L 352.179937 392.058445 
L 354.222646 391.360949 
L 358.308064 393.303369 
L 360.350773 378.258042 
L 362.393482 383.616046 
L 364.436191 394.514065 
L 366.4789 396.256396 
L 368.521609 396.13341 
L 370.564318 393.817055 
L 370.564318 393.817055 
" style="fill:none;stroke:#000000;stroke-linecap:square;stroke-width:1.5;"/>
   </g>
   <g id="text_11">
    <!-- ECU -->
    <g transform="translate(17.99 403.368736)scale(0.16 -0.16)">
     <defs>
      <path d="M 628 4666 
L 3578 4666 
L 3578 4134 
L 1259 4134 
L 1259 2753 
L 3481 2753 
L 3481 2222 
L 1259 2222 
L 1259 531 
L 3634 531 
L 3634 0 
L 628 0 
L 628 4666 
z
" id="DejaVuSans-45" transform="scale(0.015625)"/>
     </defs>
     <use xlink:href="#DejaVuSans-45"/>
     <use x="63.183594" xlink:href="#DejaVuSans-43"/>
     <use x="133.007812" xlink:href="#DejaVuSans-55"/>
    </g>
   </g>
  </g>
  <g id="axes_12">
   <g id="line2d_12">
    <path clip-path="url(#p78f414c8af)" d="M 66.200682 431.266505 
L 68.243391 431.223191 
L 70.2861 431.49901 
L 72.328809 431.49794 
L 74.371518 430.840309 
L 76.414227 431.078488 
L 78.456936 430.774724 
L 82.542354 430.543883 
L 84.585063 430.795133 
L 86.627772 431.349581 
L 88.67048 430.798925 
L 90.713189 430.743528 
L 92.755898 431.032966 
L 94.798607 431.093569 
L 96.841316 430.620428 
L 98.884025 430.340276 
L 100.926734 430.701469 
L 102.969443 431.417208 
L 107.054861 431.552165 
L 109.09757 433.118025 
L 111.140279 432.914649 
L 113.182988 431.731053 
L 115.225697 433.13293 
L 117.268406 435.626243 
L 119.311115 435.390451 
L 121.353824 436.067855 
L 123.396533 434.975067 
L 125.439242 432.276675 
L 127.481951 432.372576 
L 129.52466 433.730788 
L 131.567369 432.482641 
L 133.610078 431.047283 
L 135.652787 431.072744 
L 137.695496 427.262599 
L 139.738205 426.268857 
L 141.780914 426.403694 
L 143.823623 429.35393 
L 145.866332 431.56915 
L 147.909041 428.436216 
L 149.95175 427.942603 
L 151.994459 429.481986 
L 154.037167 437.514127 
L 156.079876 435.752603 
L 158.122585 436.299572 
L 160.165294 437.388801 
L 162.208003 436.665605 
L 164.250712 436.081405 
L 166.293421 436.91208 
L 168.33613 435.443825 
L 170.378839 436.628966 
L 172.421548 432.032224 
L 174.464257 430.553994 
L 176.506966 431.268367 
L 178.549675 432.187411 
L 180.592384 427.776856 
L 182.635093 427.894657 
L 184.677802 431.859367 
L 186.720511 431.593569 
L 188.76322 431.634758 
L 190.805929 434.129171 
L 192.848638 439.653907 
L 194.891347 439.72045 
L 196.934056 437.843431 
L 198.976765 438.709392 
L 201.019474 440.171909 
L 203.062183 438.568031 
L 205.104892 439.23144 
L 207.147601 436.829316 
L 209.19031 432.913831 
L 211.233019 432.766567 
L 213.275728 430.319747 
L 215.318437 430.148893 
L 217.361146 430.665202 
L 219.403854 431.901168 
L 221.446563 432.144192 
L 223.489272 430.254024 
L 225.531981 427.458988 
L 227.57469 430.374823 
L 229.617399 431.543747 
L 231.660108 436.259769 
L 233.702817 438.932088 
L 235.745526 434.761556 
L 237.788235 436.199655 
L 239.830944 438.678445 
L 241.873653 435.47197 
L 243.916362 434.025281 
L 245.959071 436.528091 
L 250.044489 436.079061 
L 252.087198 434.319377 
L 254.129907 431.374557 
L 256.172616 431.510818 
L 258.215325 431.366825 
L 260.258034 432.226789 
L 262.300743 430.729981 
L 264.343452 430.016439 
L 266.386161 428.362954 
L 268.42887 429.237738 
L 270.471579 427.579818 
L 274.556997 428.668763 
L 276.599706 428.496623 
L 278.642415 428.091434 
L 280.685124 428.836826 
L 282.727833 428.711149 
L 284.770541 429.367585 
L 286.81325 427.737231 
L 288.855959 428.19665 
L 290.898668 430.398307 
L 292.941377 430.276934 
L 294.984086 429.558166 
L 297.026795 432.251704 
L 299.069504 432.406717 
L 301.112213 432.154125 
L 303.154922 434.084051 
L 305.197631 433.489754 
L 307.24034 432.259914 
L 309.283049 429.24051 
L 311.325758 428.829807 
L 313.368467 429.397794 
L 315.411176 424.745576 
L 317.453885 427.390561 
L 319.496594 426.593231 
L 321.539303 425.551488 
L 323.582012 428.316289 
L 325.624721 425.6761 
L 327.66743 426.48624 
L 329.710139 431.491855 
L 331.752848 432.250426 
L 333.795557 432.10584 
L 335.838266 431.291323 
L 337.880975 429.652107 
L 339.923684 430.543612 
L 341.966393 429.241458 
L 344.009102 429.771979 
L 346.051811 428.002475 
L 350.137228 424.986666 
L 352.179937 426.544539 
L 354.222646 428.621702 
L 356.265355 428.016204 
L 358.308064 430.045873 
L 360.350773 430.880072 
L 362.393482 432.405842 
L 364.436191 432.872175 
L 366.4789 435.387693 
L 368.521609 436.762088 
L 370.564318 438.497253 
L 370.564318 438.497253 
" style="fill:none;stroke:#000000;stroke-linecap:square;stroke-width:1.5;"/>
   </g>
   <g id="text_12">
    <!-- ECR -->
    <g transform="translate(18.5825 440.015927)scale(0.16 -0.16)">
     <use xlink:href="#DejaVuSans-45"/>
     <use x="63.183594" xlink:href="#DejaVuSans-43"/>
     <use x="133.007812" xlink:href="#DejaVuSans-52"/>
    </g>
   </g>
  </g>
  <g id="axes_13">
   <g id="line2d_13">
    <path clip-path="url(#p7c6663ace4)" d="M 66.200682 466.90232 
L 68.243391 466.578441 
L 70.2861 466.656989 
L 72.328809 466.935357 
L 74.371518 466.792169 
L 82.542354 467.080273 
L 84.585063 466.657347 
L 86.627772 465.684366 
L 88.67048 466.601919 
L 90.713189 466.900545 
L 94.798607 466.974328 
L 96.841316 466.476911 
L 98.884025 466.477876 
L 100.926734 466.334833 
L 102.969443 465.663495 
L 105.012152 465.186761 
L 107.054861 465.032619 
L 109.09757 463.915202 
L 111.140279 464.164403 
L 113.182988 465.214886 
L 115.225697 463.964176 
L 117.268406 460.15835 
L 119.311115 457.759705 
L 121.353824 454.818185 
L 123.396533 462.224272 
L 125.439242 465.909387 
L 129.52466 468.428052 
L 131.567369 467.577996 
L 133.610078 466.140694 
L 135.652787 465.807721 
L 137.695496 466.174065 
L 139.738205 465.680264 
L 141.780914 466.203325 
L 143.823623 465.324635 
L 145.866332 464.960098 
L 147.909041 462.963681 
L 149.95175 464.119555 
L 151.994459 468.043398 
L 154.037167 461.918092 
L 156.079876 464.132614 
L 158.122585 463.457204 
L 160.165294 458.419412 
L 162.208003 458.857371 
L 166.293421 460.405785 
L 168.33613 458.58859 
L 170.378839 461.001051 
L 172.421548 465.964383 
L 174.464257 466.891826 
L 176.506966 467.308954 
L 178.549675 466.965344 
L 180.592384 467.47165 
L 182.635093 459.948214 
L 184.677802 456.875048 
L 186.720511 463.044307 
L 188.76322 460.653615 
L 190.805929 465.618358 
L 192.848638 461.441785 
L 194.891347 462.232463 
L 196.934056 456.142676 
L 198.976765 460.64162 
L 201.019474 458.773893 
L 203.062183 457.172114 
L 205.104892 464.53718 
L 207.147601 465.784135 
L 209.19031 465.442015 
L 211.233019 467.604709 
L 213.275728 466.31334 
L 215.318437 464.719094 
L 217.361146 464.824395 
L 219.403854 463.911041 
L 221.446563 457.330325 
L 223.489272 461.27579 
L 225.531981 466.815755 
L 227.57469 463.081738 
L 229.617399 466.434688 
L 231.660108 462.662475 
L 233.702817 461.526048 
L 235.745526 464.530088 
L 237.788235 460.277464 
L 239.830944 460.620199 
L 241.873653 465.91556 
L 243.916362 466.809025 
L 245.959071 461.544037 
L 248.00178 465.456605 
L 250.044489 465.127019 
L 252.087198 464.5435 
L 254.129907 468.322033 
L 256.172616 466.279736 
L 258.215325 467.102511 
L 260.258034 467.316724 
L 262.300743 466.566833 
L 264.343452 467.239214 
L 266.386161 466.751351 
L 268.42887 466.644598 
L 270.471579 466.357776 
L 272.514288 466.470847 
L 274.556997 463.752139 
L 276.599706 465.199188 
L 278.642415 464.245993 
L 280.685124 463.557285 
L 282.727833 461.375294 
L 284.770541 462.732659 
L 286.81325 462.072254 
L 288.855959 461.693029 
L 290.898668 459.12246 
L 292.941377 456.197603 
L 294.984086 455.901265 
L 297.026795 457.887433 
L 299.069504 455.215684 
L 301.112213 457.149727 
L 303.154922 457.396502 
L 305.197631 459.082828 
L 307.24034 463.456352 
L 309.283049 463.427292 
L 311.325758 466.333344 
L 313.368467 465.136298 
L 315.411176 464.138679 
L 317.453885 463.745091 
L 319.496594 465.141795 
L 321.539303 465.673679 
L 323.582012 465.985949 
L 325.624721 465.913119 
L 327.66743 465.247059 
L 329.710139 466.027916 
L 331.752848 463.792061 
L 333.795557 459.538068 
L 335.838266 462.803601 
L 337.880975 465.405657 
L 339.923684 465.466452 
L 341.966393 466.401389 
L 344.009102 465.955263 
L 346.051811 466.206493 
L 348.09452 465.187652 
L 352.179937 464.783398 
L 354.222646 463.859381 
L 356.265355 462.077984 
L 358.308064 464.269472 
L 360.350773 465.717114 
L 362.393482 468.074123 
L 364.436191 467.087163 
L 368.521609 456.340862 
L 370.564318 457.238612 
L 370.564318 457.238612 
" style="fill:none;stroke:#000000;stroke-linecap:square;stroke-width:1.5;"/>
   </g>
   <g id="text_13">
    <!-- EDC1 -->
    <g transform="translate(7.2 476.663118)scale(0.16 -0.16)">
     <use xlink:href="#DejaVuSans-45"/>
     <use x="63.183594" xlink:href="#DejaVuSans-44"/>
     <use x="140.185547" xlink:href="#DejaVuSans-43"/>
     <use x="210.009766" xlink:href="#DejaVuSans-31"/>
    </g>
   </g>
  </g>
  <g id="axes_14">
   <g id="line2d_14">
    <path clip-path="url(#pcf8f518bc7)" d="M 66.200682 503.286994 
L 68.243391 503.261218 
L 74.371518 503.638895 
L 76.414227 503.525549 
L 78.456936 503.949292 
L 80.499645 503.84802 
L 82.542354 503.877226 
L 84.585063 503.217062 
L 86.627772 501.787686 
L 88.67048 503.164571 
L 90.713189 503.838632 
L 92.755898 503.880678 
L 94.798607 503.705175 
L 96.841316 502.76587 
L 98.884025 502.422668 
L 100.926734 502.455251 
L 102.969443 501.965638 
L 105.012152 500.48646 
L 107.054861 500.440518 
L 109.09757 500.146276 
L 111.140279 501.663066 
L 113.182988 502.546913 
L 117.268406 496.467091 
L 119.311115 494.047923 
L 121.353824 497.646468 
L 123.396533 500.04892 
L 125.439242 504.212861 
L 127.481951 504.718369 
L 129.52466 505.723203 
L 131.567369 504.451557 
L 133.610078 502.324078 
L 135.652787 502.33277 
L 137.695496 501.618274 
L 139.738205 502.211328 
L 141.780914 501.98781 
L 143.823623 502.995571 
L 145.866332 504.471815 
L 147.909041 504.870433 
L 151.994459 504.24878 
L 154.037167 495.082546 
L 156.079876 500.526708 
L 158.122585 501.051913 
L 160.165294 493.640246 
L 162.208003 494.780227 
L 164.250712 495.495909 
L 166.293421 497.604561 
L 168.33613 497.632387 
L 170.378839 501.080892 
L 172.421548 505.027805 
L 174.464257 503.680932 
L 176.506966 504.082538 
L 178.549675 503.035282 
L 180.592384 503.111973 
L 184.677802 507.811924 
L 186.720511 506.694427 
L 188.76322 506.694874 
L 190.805929 503.89415 
L 192.848638 499.065177 
L 194.891347 500.269898 
L 196.934056 496.034902 
L 198.976765 497.900859 
L 201.019474 494.692223 
L 203.062183 502.900936 
L 205.104892 500.380277 
L 207.147601 502.554186 
L 209.19031 502.615411 
L 211.233019 505.955022 
L 213.275728 503.824084 
L 215.318437 504.599359 
L 217.361146 504.367661 
L 219.403854 504.405828 
L 221.446563 504.989354 
L 225.531981 505.017466 
L 227.57469 506.886811 
L 229.617399 505.672595 
L 231.660108 496.519768 
L 233.702817 497.499261 
L 235.745526 501.074124 
L 237.788235 496.739655 
L 239.830944 496.838684 
L 241.873653 502.229762 
L 243.916362 505.018002 
L 245.959071 498.4653 
L 248.00178 500.533512 
L 250.044489 501.433582 
L 252.087198 500.877678 
L 254.129907 503.632008 
L 256.172616 502.765127 
L 258.215325 504.098356 
L 260.258034 504.357991 
L 262.300743 504.282314 
L 264.343452 504.55054 
L 266.386161 503.582035 
L 268.42887 503.816309 
L 272.514288 503.831842 
L 274.556997 503.659274 
L 276.599706 503.636507 
L 278.642415 504.563909 
L 280.685124 503.866556 
L 282.727833 504.25868 
L 284.770541 504.424533 
L 286.81325 504.873183 
L 290.898668 504.603174 
L 292.941377 505.868188 
L 294.984086 506.274909 
L 297.026795 507.311309 
L 299.069504 506.839549 
L 301.112213 506.780761 
L 303.154922 508.264607 
L 305.197631 508.668337 
L 309.283049 507.011724 
L 311.325758 507.25723 
L 313.368467 507.09972 
L 315.411176 505.813496 
L 317.453885 506.420094 
L 321.539303 505.661213 
L 323.582012 505.313692 
L 325.624721 504.165103 
L 327.66743 503.748462 
L 329.710139 501.822412 
L 331.752848 502.734261 
L 333.795557 503.895467 
L 335.838266 501.168416 
L 337.880975 501.239059 
L 339.923684 502.603826 
L 341.966393 502.599051 
L 344.009102 502.833062 
L 348.09452 503.946042 
L 350.137228 503.879165 
L 352.179937 504.447351 
L 354.222646 504.73598 
L 356.265355 504.269023 
L 358.308064 504.283252 
L 360.350773 504.824772 
L 362.393482 505.633151 
L 364.436191 503.589545 
L 366.4789 497.665549 
L 368.521609 498.761873 
L 370.564318 493.84722 
L 370.564318 493.84722 
" style="fill:none;stroke:#000000;stroke-linecap:square;stroke-width:1.5;"/>
   </g>
   <g id="text_14">
    <!-- BI -->
    <g transform="translate(35.285 513.310309)scale(0.16 -0.16)">
     <use xlink:href="#DejaVuSans-42"/>
     <use x="68.603516" xlink:href="#DejaVuSans-49"/>
    </g>
   </g>
  </g>
  <g id="axes_15">
   <g id="line2d_15">
    <path clip-path="url(#p76969ffd25)" d="M 66.200682 540.09059 
L 68.243391 539.868695 
L 72.328809 540.39691 
L 74.371518 540.270631 
L 76.414227 540.306774 
L 78.456936 540.488966 
L 82.542354 540.497768 
L 84.585063 539.465368 
L 86.627772 537.830864 
L 88.67048 539.938175 
L 90.713189 540.318258 
L 92.755898 540.459076 
L 94.798607 540.471063 
L 96.841316 539.923565 
L 98.884025 539.732822 
L 100.926734 539.976335 
L 102.969443 539.304467 
L 105.012152 538.274693 
L 107.054861 538.196598 
L 109.09757 537.545113 
L 111.140279 539.008838 
L 113.182988 539.217403 
L 115.225697 536.58991 
L 117.268406 534.737756 
L 119.311115 532.540536 
L 121.353824 536.430097 
L 123.396533 537.640005 
L 125.439242 540.271889 
L 127.481951 541.265851 
L 129.52466 542.787887 
L 131.567369 541.56011 
L 133.610078 539.280697 
L 137.695496 539.266119 
L 139.738205 538.959557 
L 141.780914 539.418718 
L 143.823623 539.128144 
L 145.866332 539.022706 
L 147.909041 539.123557 
L 149.95175 538.646689 
L 151.994459 539.678261 
L 154.037167 533.305312 
L 156.079876 535.866366 
L 158.122585 536.746562 
L 160.165294 536.449944 
L 162.208003 536.619381 
L 164.250712 533.737958 
L 166.293421 535.339983 
L 168.33613 540.105128 
L 170.378839 536.668392 
L 172.421548 541.048022 
L 174.464257 540.091011 
L 176.506966 540.347503 
L 178.549675 539.841434 
L 180.592384 540.118316 
L 182.635093 541.957727 
L 184.677802 544.389753 
L 186.720511 543.253252 
L 188.76322 543.011917 
L 190.805929 540.698446 
L 192.848638 534.942222 
L 194.891347 536.988301 
L 196.934056 537.437367 
L 198.976765 534.148995 
L 201.019474 532.392691 
L 203.062183 540.059272 
L 205.104892 536.021696 
L 209.19031 541.095933 
L 211.233019 542.346239 
L 213.275728 540.182958 
L 215.318437 540.921314 
L 217.361146 540.730622 
L 219.403854 541.056929 
L 221.446563 542.416002 
L 223.489272 541.68596 
L 225.531981 541.437012 
L 227.57469 543.414305 
L 229.617399 541.393174 
L 231.660108 532.978055 
L 233.702817 533.625595 
L 235.745526 537.374451 
L 237.788235 532.93919 
L 239.830944 532.763131 
L 241.873653 539.08263 
L 243.916362 541.578588 
L 245.959071 535.530615 
L 248.00178 538.150077 
L 250.044489 536.629462 
L 252.087198 537.064776 
L 254.129907 541.611942 
L 256.172616 540.087268 
L 258.215325 540.718102 
L 260.258034 540.909432 
L 262.300743 540.9177 
L 264.343452 541.25806 
L 266.386161 540.630454 
L 268.42887 540.339695 
L 270.471579 540.587616 
L 274.556997 540.761981 
L 278.642415 541.18087 
L 280.685124 540.635463 
L 284.770541 540.846375 
L 286.81325 542.274037 
L 288.855959 541.569128 
L 292.941377 542.912947 
L 294.984086 542.798821 
L 297.026795 544.363079 
L 299.069504 544.216412 
L 301.112213 543.85256 
L 303.154922 545.878153 
L 305.197631 545.952761 
L 309.283049 543.887811 
L 313.368467 543.763681 
L 315.411176 542.714376 
L 317.453885 542.909916 
L 319.496594 542.592269 
L 321.539303 542.46559 
L 323.582012 541.676763 
L 325.624721 540.683858 
L 327.66743 540.461884 
L 329.710139 541.118858 
L 331.752848 541.614742 
L 333.795557 541.203829 
L 335.838266 541.659775 
L 337.880975 540.66838 
L 339.923684 540.653827 
L 341.966393 540.142233 
L 344.009102 540.316266 
L 346.051811 540.819626 
L 350.137228 540.969487 
L 352.179937 541.448983 
L 354.222646 541.640711 
L 360.350773 541.644906 
L 362.393482 542.042151 
L 364.436191 540.649106 
L 366.4789 534.21356 
L 368.521609 534.928041 
L 370.564318 530.359339 
L 370.564318 530.359339 
" style="fill:none;stroke:#000000;stroke-linecap:square;stroke-width:1.5;"/>
   </g>
   <g id="text_15">
    <!-- TRI -->
    <g transform="translate(25.3725 549.9575)scale(0.16 -0.16)">
     <use xlink:href="#DejaVuSans-54"/>
     <use x="61.083984" xlink:href="#DejaVuSans-52"/>
     <use x="130.566406" xlink:href="#DejaVuSans-49"/>
    </g>
   </g>
  </g>
 </g>
 <defs>
  <clipPath id="p70626b4ab6">
   <rect height="30.539326" width="334.8" x="50.9825" y="7.2"/>
  </clipPath>
  <clipPath id="pb07f378da0">
   <rect height="30.539326" width="334.8" x="50.9825" y="43.847191"/>
  </clipPath>
  <clipPath id="p6b2bbcf7e9">
   <rect height="30.539326" width="334.8" x="50.9825" y="80.494382"/>
  </clipPath>
  <clipPath id="pfe26045f7a">
   <rect height="30.539326" width="334.8" x="50.9825" y="117.141573"/>
  </clipPath>
  <clipPath id="p7a65c3b66b">
   <rect height="30.539326" width="334.8" x="50.9825" y="153.788764"/>
  </clipPath>
  <clipPath id="p19d6544971">
   <rect height="30.539326" width="334.8" x="50.9825" y="190.435955"/>
  </clipPath>
  <clipPath id="p2f669f8795">
   <rect height="30.539326" width="334.8" x="50.9825" y="227.083146"/>
  </clipPath>
  <clipPath id="pba57657634">
   <rect height="30.539326" width="334.8" x="50.9825" y="263.730337"/>
  </clipPath>
  <clipPath id="p19e4e3fae2">
   <rect height="30.539326" width="334.8" x="50.9825" y="300.377528"/>
  </clipPath>
  <clipPath id="p679f314bae">
   <rect height="30.539326" width="334.8" x="50.9825" y="337.024719"/>
  </clipPath>
  <clipPath id="pf08ab2c640">
   <rect height="30.539326" width="334.8" x="50.9825" y="373.67191"/>
  </clipPath>
  <clipPath id="p78f414c8af">
   <rect height="30.539326" width="334.8" x="50.9825" y="410.319101"/>
  </clipPath>
  <clipPath id="p7c6663ace4">
   <rect height="30.539326" width="334.8" x="50.9825" y="446.966292"/>
  </clipPath>
  <clipPath id="pcf8f518bc7">
   <rect height="30.539326" width="334.8" x="50.9825" y="483.613483"/>
  </clipPath>
  <clipPath id="p76969ffd25">
   <rect height="30.539326" width="334.8" x="50.9825" y="520.260674"/>
  </clipPath>
 </defs>
</svg>
